<?xml version="1.0" encoding="utf-8"?>
<!-- Generator: Adobe Illustrator 22.1.0, SVG Export Plug-In . SVG Version: 6.00 Build 0)  -->
<svg version="1.1" id="Layer_1" xmlns="http://www.w3.org/2000/svg" xmlns:xlink="http://www.w3.org/1999/xlink" x="0px" y="0px"
	 viewBox="0 0 850.4 850.4" style="enable-background:new 0 0 850.4 850.4;" xml:space="preserve">
<style type="text/css">
	.st0{fill:url(#XMLID_2_);}
	.st1{clip-path:url(#SVGID_2_);}
	.st2{fill:none;stroke:#EB1C34;stroke-miterlimit:10;}
	.st3{fill:#FFFFFF;}
	.st4{fill:none;stroke:#C43735;stroke-miterlimit:10;}
	.st5{fill:#ED1C24;}
	.st6{clip-path:url(#SVGID_4_);}
	.st7{fill:#ED1C24;stroke:#FFFFFF;stroke-miterlimit:10;}
	.st8{fill:#EE2134;}
	.st9{fill:#E3C225;}
	.st10{fill:#F1B891;}
	.st11{opacity:0.4;}
	.st12{opacity:0.4;fill:#F1B891;}
	.st13{fill:#231F20;}
</style>
<linearGradient id="XMLID_2_" gradientUnits="userSpaceOnUse" x1="276.8665" y1="726.527" x2="506.9502" y2="-72.4899" gradientTransform="matrix(1 0 0 -1 0 848.8504)">
	<stop  offset="0" style="stop-color:#891740"/>
	<stop  offset="1" style="stop-color:#EB1C34"/>
</linearGradient>
<path id="XMLID_1530_" class="st0" d="M790.1,833c33.5-57.6,52.7-124,52.7-194.7c0-221-186.9-400.2-417.4-400.2
	C194.9,238.1,8.1,417.2,8.1,638.3c0,70.7,19.1,137,52.6,194.7H790.1z"/>
<g id="XMLID_168_">
	<g>
		<defs>
			<path id="SVGID_1_" d="M790.1,833c33.5-57.6,52.7-124,52.7-194.7c0-221-186.9-400.2-417.4-400.2C194.9,238.1,8.1,417.2,8.1,638.3
				c0,70.7,19.1,137,52.6,194.7H790.1z"/>
		</defs>
		<clipPath id="SVGID_2_">
			<use xlink:href="#SVGID_1_"  style="overflow:visible;"/>
		</clipPath>
		<g id="XMLID_174_" class="st1">
			<line id="XMLID_1529_" class="st2" x1="48.1" y1="210.6" x2="-668.9" y2="898.2"/>
			<line id="XMLID_1528_" class="st2" x1="59.8" y1="210.6" x2="-657.3" y2="898.2"/>
			<line id="XMLID_1527_" class="st2" x1="71.4" y1="210.6" x2="-645.6" y2="898.2"/>
			<line id="XMLID_1526_" class="st2" x1="83.1" y1="210.6" x2="-633.9" y2="898.2"/>
			<line id="XMLID_1525_" class="st2" x1="94.8" y1="210.6" x2="-622.3" y2="898.2"/>
			<line id="XMLID_1524_" class="st2" x1="106.4" y1="210.6" x2="-610.6" y2="898.2"/>
			<line id="XMLID_1523_" class="st2" x1="118.1" y1="210.6" x2="-598.9" y2="898.2"/>
			<line id="XMLID_1522_" class="st2" x1="129.8" y1="210.6" x2="-587.3" y2="898.2"/>
			<line id="XMLID_1521_" class="st2" x1="141.4" y1="210.6" x2="-575.6" y2="898.2"/>
			<line id="XMLID_1520_" class="st2" x1="153.1" y1="210.6" x2="-563.9" y2="898.2"/>
			<line id="XMLID_1519_" class="st2" x1="164.8" y1="210.6" x2="-552.3" y2="898.2"/>
			<line id="XMLID_1518_" class="st2" x1="176.4" y1="210.6" x2="-540.6" y2="898.2"/>
			<line id="XMLID_1517_" class="st2" x1="188.1" y1="210.6" x2="-529" y2="898.2"/>
			<line id="XMLID_1516_" class="st2" x1="199.8" y1="210.6" x2="-517.3" y2="898.2"/>
			<line id="XMLID_1515_" class="st2" x1="211.4" y1="210.6" x2="-505.6" y2="898.2"/>
			<line id="XMLID_1514_" class="st2" x1="223.1" y1="210.6" x2="-494" y2="898.2"/>
			<line id="XMLID_1513_" class="st2" x1="234.7" y1="210.6" x2="-482.3" y2="898.2"/>
			<line id="XMLID_1512_" class="st2" x1="246.4" y1="210.6" x2="-470.6" y2="898.2"/>
			<line id="XMLID_1511_" class="st2" x1="258.1" y1="210.6" x2="-459" y2="898.2"/>
			<line id="XMLID_1510_" class="st2" x1="269.7" y1="210.6" x2="-447.3" y2="898.2"/>
			<line id="XMLID_1509_" class="st2" x1="281.4" y1="210.6" x2="-435.6" y2="898.2"/>
			<line id="XMLID_1508_" class="st2" x1="293.1" y1="210.6" x2="-424" y2="898.2"/>
			<line id="XMLID_1507_" class="st2" x1="304.7" y1="210.6" x2="-412.3" y2="898.2"/>
			<line id="XMLID_1506_" class="st2" x1="316.4" y1="210.6" x2="-400.6" y2="898.2"/>
			<line id="XMLID_1505_" class="st2" x1="328.1" y1="210.6" x2="-389" y2="898.2"/>
			<line id="XMLID_1504_" class="st2" x1="339.7" y1="210.6" x2="-377.3" y2="898.2"/>
			<line id="XMLID_1503_" class="st2" x1="351.4" y1="210.6" x2="-365.7" y2="898.2"/>
			<line id="XMLID_1502_" class="st2" x1="363.1" y1="210.6" x2="-354" y2="898.2"/>
			<line id="XMLID_1501_" class="st2" x1="374.7" y1="210.6" x2="-342.3" y2="898.2"/>
			<line id="XMLID_1500_" class="st2" x1="386.4" y1="210.6" x2="-330.7" y2="898.2"/>
			<line id="XMLID_1499_" class="st2" x1="398" y1="210.6" x2="-319" y2="898.2"/>
			<line id="XMLID_1498_" class="st2" x1="409.7" y1="210.6" x2="-307.3" y2="898.2"/>
			<line id="XMLID_1497_" class="st2" x1="421.4" y1="210.6" x2="-295.7" y2="898.2"/>
			<line id="XMLID_1496_" class="st2" x1="433" y1="210.6" x2="-284" y2="898.2"/>
			<line id="XMLID_1495_" class="st2" x1="444.7" y1="210.6" x2="-272.3" y2="898.2"/>
			<line id="XMLID_1494_" class="st2" x1="456.4" y1="210.6" x2="-260.7" y2="898.2"/>
			<line id="XMLID_1493_" class="st2" x1="468" y1="210.6" x2="-249" y2="898.2"/>
			<line id="XMLID_1492_" class="st2" x1="479.7" y1="210.6" x2="-237.3" y2="898.2"/>
			<line id="XMLID_1491_" class="st2" x1="491.4" y1="210.6" x2="-225.7" y2="898.2"/>
			<line id="XMLID_1490_" class="st2" x1="608" y1="210.6" x2="-109" y2="898.2"/>
			<line id="XMLID_1489_" class="st2" x1="503" y1="210.6" x2="-214" y2="898.2"/>
			<line id="XMLID_1488_" class="st2" x1="514.7" y1="210.6" x2="-202.4" y2="898.2"/>
			<line id="XMLID_1487_" class="st2" x1="526.4" y1="210.6" x2="-190.7" y2="898.2"/>
			<line id="XMLID_1486_" class="st2" x1="538" y1="210.6" x2="-179" y2="898.2"/>
			<line id="XMLID_1485_" class="st2" x1="549.7" y1="210.6" x2="-167.4" y2="898.2"/>
			<line id="XMLID_1484_" class="st2" x1="561.3" y1="210.6" x2="-155.7" y2="898.2"/>
			<line id="XMLID_1483_" class="st2" x1="573" y1="210.6" x2="-144" y2="898.2"/>
			<line id="XMLID_1482_" class="st2" x1="584.7" y1="210.6" x2="-132.4" y2="898.2"/>
			<line id="XMLID_1481_" class="st2" x1="596.3" y1="210.6" x2="-120.7" y2="898.2"/>
			<line id="XMLID_1480_" class="st2" x1="724.6" y1="210.6" x2="7.6" y2="898.2"/>
			<line id="XMLID_1479_" class="st2" x1="619.7" y1="210.6" x2="-97.4" y2="898.2"/>
			<line id="XMLID_1417_" class="st2" x1="631.3" y1="210.6" x2="-85.7" y2="898.2"/>
			<line id="XMLID_1416_" class="st2" x1="643" y1="210.6" x2="-74.1" y2="898.2"/>
			<line id="XMLID_1415_" class="st2" x1="654.7" y1="210.6" x2="-62.4" y2="898.2"/>
			<line id="XMLID_1414_" class="st2" x1="666.3" y1="210.6" x2="-50.7" y2="898.2"/>
			<line id="XMLID_1413_" class="st2" x1="678" y1="210.6" x2="-39.1" y2="898.2"/>
			<line id="XMLID_1406_" class="st2" x1="689.6" y1="210.6" x2="-27.4" y2="898.2"/>
			<line id="XMLID_1325_" class="st2" x1="701.3" y1="210.6" x2="-15.7" y2="898.2"/>
			<line id="XMLID_1310_" class="st2" x1="713" y1="210.6" x2="-4.1" y2="898.2"/>
			<line id="XMLID_1240_" class="st2" x1="841.3" y1="210.6" x2="124.2" y2="898.2"/>
			<line id="XMLID_1226_" class="st2" x1="736.3" y1="210.6" x2="19.3" y2="898.2"/>
			<line id="XMLID_1155_" class="st2" x1="748" y1="210.6" x2="30.9" y2="898.2"/>
			<line id="XMLID_1154_" class="st2" x1="759.6" y1="210.6" x2="42.6" y2="898.2"/>
			<line id="XMLID_1152_" class="st2" x1="771.3" y1="210.6" x2="54.3" y2="898.2"/>
			<line id="XMLID_1142_" class="st2" x1="783" y1="210.6" x2="65.9" y2="898.2"/>
			<line id="XMLID_1141_" class="st2" x1="794.6" y1="210.6" x2="77.6" y2="898.2"/>
			<line id="XMLID_1139_" class="st2" x1="806.3" y1="210.6" x2="89.2" y2="898.2"/>
			<line id="XMLID_626_" class="st2" x1="818" y1="210.6" x2="100.9" y2="898.2"/>
			<line id="XMLID_624_" class="st2" x1="829.6" y1="210.6" x2="112.6" y2="898.2"/>
			<line id="XMLID_623_" class="st2" x1="852.9" y1="210.6" x2="135.9" y2="898.2"/>
			<line id="XMLID_622_" class="st2" x1="864.6" y1="210.6" x2="147.6" y2="898.2"/>
			<line id="XMLID_621_" class="st2" x1="876.3" y1="210.6" x2="159.2" y2="898.2"/>
			<line id="XMLID_620_" class="st2" x1="887.9" y1="210.6" x2="170.9" y2="898.2"/>
			<line id="XMLID_619_" class="st2" x1="899.6" y1="210.6" x2="182.6" y2="898.2"/>
			<line id="XMLID_618_" class="st2" x1="911.3" y1="210.6" x2="194.2" y2="898.2"/>
			<line id="XMLID_617_" class="st2" x1="922.9" y1="210.6" x2="205.9" y2="898.2"/>
			<line id="XMLID_616_" class="st2" x1="934.6" y1="210.6" x2="217.6" y2="898.2"/>
			<line id="XMLID_615_" class="st2" x1="946.3" y1="210.6" x2="229.2" y2="898.2"/>
			<line id="XMLID_614_" class="st2" x1="957.9" y1="210.6" x2="240.9" y2="898.2"/>
			<line id="XMLID_613_" class="st2" x1="969.6" y1="210.6" x2="252.5" y2="898.2"/>
			<line id="XMLID_612_" class="st2" x1="981.3" y1="210.6" x2="264.2" y2="898.2"/>
			<line id="XMLID_611_" class="st2" x1="992.9" y1="210.6" x2="275.9" y2="898.2"/>
			<line id="XMLID_610_" class="st2" x1="1004.6" y1="210.6" x2="287.5" y2="898.2"/>
			<line id="XMLID_609_" class="st2" x1="1016.2" y1="210.6" x2="299.2" y2="898.2"/>
			<line id="XMLID_608_" class="st2" x1="1027.9" y1="210.6" x2="310.9" y2="898.2"/>
			<line id="XMLID_607_" class="st2" x1="1039.6" y1="210.6" x2="322.5" y2="898.2"/>
			<line id="XMLID_606_" class="st2" x1="1051.2" y1="210.6" x2="334.2" y2="898.2"/>
			<line id="XMLID_605_" class="st2" x1="1062.9" y1="210.6" x2="345.9" y2="898.2"/>
			<line id="XMLID_604_" class="st2" x1="1074.6" y1="210.6" x2="357.5" y2="898.2"/>
			<line id="XMLID_603_" class="st2" x1="1086.2" y1="210.6" x2="369.2" y2="898.2"/>
			<line id="XMLID_602_" class="st2" x1="1097.9" y1="210.6" x2="380.9" y2="898.2"/>
			<line id="XMLID_601_" class="st2" x1="1109.6" y1="210.6" x2="392.5" y2="898.2"/>
			<line id="XMLID_600_" class="st2" x1="1121.2" y1="210.6" x2="404.2" y2="898.2"/>
			<line id="XMLID_599_" class="st2" x1="1132.9" y1="210.6" x2="415.8" y2="898.2"/>
			<line id="XMLID_598_" class="st2" x1="1144.6" y1="210.6" x2="427.5" y2="898.2"/>
			<line id="XMLID_597_" class="st2" x1="1156.2" y1="210.6" x2="439.2" y2="898.2"/>
			<line id="XMLID_596_" class="st2" x1="1167.9" y1="210.6" x2="450.8" y2="898.2"/>
			<line id="XMLID_595_" class="st2" x1="1179.5" y1="210.6" x2="462.5" y2="898.2"/>
			<line id="XMLID_594_" class="st2" x1="1191.2" y1="210.6" x2="474.2" y2="898.2"/>
			<line id="XMLID_593_" class="st2" x1="1202.9" y1="210.6" x2="485.8" y2="898.2"/>
			<line id="XMLID_592_" class="st2" x1="1214.5" y1="210.6" x2="497.5" y2="898.2"/>
			<line id="XMLID_591_" class="st2" x1="1226.2" y1="210.6" x2="509.2" y2="898.2"/>
			<line id="XMLID_590_" class="st2" x1="1237.9" y1="210.6" x2="520.8" y2="898.2"/>
			<line id="XMLID_589_" class="st2" x1="1249.5" y1="210.6" x2="532.5" y2="898.2"/>
			<line id="XMLID_588_" class="st2" x1="1261.2" y1="210.6" x2="544.2" y2="898.2"/>
			<line id="XMLID_587_" class="st2" x1="1272.9" y1="210.6" x2="555.8" y2="898.2"/>
			<line id="XMLID_586_" class="st2" x1="1284.5" y1="210.6" x2="567.5" y2="898.2"/>
			<line id="XMLID_585_" class="st2" x1="1296.2" y1="210.6" x2="579.1" y2="898.2"/>
			<line id="XMLID_584_" class="st2" x1="1412.8" y1="210.6" x2="695.8" y2="898.2"/>
			<line id="XMLID_583_" class="st2" x1="1307.9" y1="210.6" x2="590.8" y2="898.2"/>
			<line id="XMLID_582_" class="st2" x1="1319.5" y1="210.6" x2="602.5" y2="898.2"/>
			<line id="XMLID_581_" class="st2" x1="1331.2" y1="210.6" x2="614.1" y2="898.2"/>
			<line id="XMLID_580_" class="st2" x1="1342.8" y1="210.6" x2="625.8" y2="898.2"/>
			<line id="XMLID_579_" class="st2" x1="1354.5" y1="210.6" x2="637.5" y2="898.2"/>
			<line id="XMLID_578_" class="st2" x1="1366.2" y1="210.6" x2="649.1" y2="898.2"/>
			<line id="XMLID_577_" class="st2" x1="1377.8" y1="210.6" x2="660.8" y2="898.2"/>
			<line id="XMLID_576_" class="st2" x1="1389.5" y1="210.6" x2="672.5" y2="898.2"/>
			<line id="XMLID_575_" class="st2" x1="1401.2" y1="210.6" x2="684.1" y2="898.2"/>
			<line id="XMLID_574_" class="st2" x1="1529.5" y1="210.6" x2="812.4" y2="898.2"/>
			<line id="XMLID_573_" class="st2" x1="1424.5" y1="210.6" x2="707.5" y2="898.2"/>
			<line id="XMLID_567_" class="st2" x1="1436.2" y1="210.6" x2="719.1" y2="898.2"/>
			<line id="XMLID_557_" class="st2" x1="1447.8" y1="210.6" x2="730.8" y2="898.2"/>
			<line id="XMLID_556_" class="st2" x1="1459.5" y1="210.6" x2="742.4" y2="898.2"/>
			<line id="XMLID_550_" class="st2" x1="1471.2" y1="210.6" x2="754.1" y2="898.2"/>
			<line id="XMLID_548_" class="st2" x1="1482.8" y1="210.6" x2="765.8" y2="898.2"/>
			<line id="XMLID_547_" class="st2" x1="1494.5" y1="210.6" x2="777.4" y2="898.2"/>
			<line id="XMLID_546_" class="st2" x1="1506.1" y1="210.6" x2="789.1" y2="898.2"/>
			<line id="XMLID_541_" class="st2" x1="1517.8" y1="210.6" x2="800.8" y2="898.2"/>
			<line id="XMLID_196_" class="st2" x1="1646.1" y1="210.6" x2="929.1" y2="898.2"/>
			<line id="XMLID_195_" class="st2" x1="1541.1" y1="210.6" x2="824.1" y2="898.2"/>
			<line id="XMLID_194_" class="st2" x1="1552.8" y1="210.6" x2="835.8" y2="898.2"/>
			<line id="XMLID_193_" class="st2" x1="1564.5" y1="210.6" x2="847.4" y2="898.2"/>
			<line id="XMLID_192_" class="st2" x1="1576.1" y1="210.6" x2="859.1" y2="898.2"/>
			<line id="XMLID_185_" class="st2" x1="1587.8" y1="210.6" x2="870.7" y2="898.2"/>
			<line id="XMLID_178_" class="st2" x1="1599.5" y1="210.6" x2="882.4" y2="898.2"/>
			<line id="XMLID_177_" class="st2" x1="1611.1" y1="210.6" x2="894.1" y2="898.2"/>
			<line id="XMLID_176_" class="st2" x1="1622.8" y1="210.6" x2="905.7" y2="898.2"/>
			<line id="XMLID_175_" class="st2" x1="1634.4" y1="210.6" x2="917.4" y2="898.2"/>
		</g>
	</g>
</g>
<g>
	<path class="st3" d="M703.8,804.1c36.3-51.5,57.5-113.5,57.5-180.3c0-177.9-150.4-322.1-335.9-322.1S89.5,445.9,89.5,623.8
		c0,66.8,21.2,128.9,57.5,180.3H703.8z"/>
</g>
<line id="XMLID_532_" class="st4" x1="196.7" y1="499.9" x2="654.2" y2="499.9"/>
<g id="XMLID_293_">
	<g id="XMLID_381_">
		<polygon id="XMLID_383_" class="st5" points="184.9,804.4 217.3,843.8 425.4,843.8 425.4,804.4 		"/>
		<polygon id="XMLID_382_" class="st5" points="665.9,804.4 633.6,843.8 425.4,843.8 425.4,804.4 		"/>
	</g>
	<g id="XMLID_530_">
		<g>
			<g>
				<rect id="XMLID_1188_" x="217.3" y="760.1" class="st5" width="416.3" height="83.8"/>
				<polygon id="XMLID_1187_" class="st5" points="217.3,760.1 217.3,760.9 632.5,761.1 632.5,843.8 633.6,843.8 633.6,760.1 				
					"/>
				<g id="XMLID_1098_">
					<g>
						<defs>
							<rect id="SVGID_3_" x="217.3" y="760.1" width="416.3" height="83.8"/>
						</defs>
						<use xlink:href="#SVGID_3_"  style="overflow:visible;fill:#ED1C24;"/>
						<clipPath id="SVGID_4_">
							<use xlink:href="#SVGID_3_"  style="overflow:visible;"/>
						</clipPath>
						<g id="XMLID_1100_" class="st6">
							<line id="XMLID_1186_" class="st7" x1="333.5" y1="660.1" x2="-49.7" y2="1027.5"/>
							<line id="XMLID_1185_" class="st7" x1="339.7" y1="660.1" x2="-43.4" y2="1027.5"/>
							<line id="XMLID_1184_" class="st7" x1="346" y1="660.1" x2="-37.2" y2="1027.5"/>
							<line id="XMLID_1183_" class="st7" x1="352.2" y1="660.1" x2="-31" y2="1027.5"/>
							<line id="XMLID_1182_" class="st7" x1="358.4" y1="660.1" x2="-24.7" y2="1027.5"/>
							<line id="XMLID_1181_" class="st7" x1="364.7" y1="660.1" x2="-18.5" y2="1027.5"/>
							<line id="XMLID_1180_" class="st7" x1="370.9" y1="660.1" x2="-12.3" y2="1027.5"/>
							<line id="XMLID_1179_" class="st7" x1="377.1" y1="660.1" x2="-6" y2="1027.5"/>
							<line id="XMLID_1178_" class="st7" x1="383.4" y1="660.1" x2="0.2" y2="1027.5"/>
							<line id="XMLID_1177_" class="st7" x1="389.6" y1="660.1" x2="6.4" y2="1027.5"/>
							<line id="XMLID_1176_" class="st7" x1="395.8" y1="660.1" x2="12.7" y2="1027.5"/>
							<line id="XMLID_1175_" class="st7" x1="402.1" y1="660.1" x2="18.9" y2="1027.5"/>
							<line id="XMLID_1174_" class="st7" x1="408.3" y1="660.1" x2="25.1" y2="1027.5"/>
							<line id="XMLID_1173_" class="st7" x1="414.5" y1="660.1" x2="31.4" y2="1027.5"/>
							<line id="XMLID_1172_" class="st7" x1="420.8" y1="660.1" x2="37.6" y2="1027.5"/>
							<line id="XMLID_1171_" class="st7" x1="427" y1="660.1" x2="43.8" y2="1027.5"/>
							<line id="XMLID_1170_" class="st7" x1="433.2" y1="660.1" x2="50.1" y2="1027.5"/>
							<line id="XMLID_1169_" class="st7" x1="439.5" y1="660.1" x2="56.3" y2="1027.5"/>
							<line id="XMLID_1168_" class="st7" x1="445.7" y1="660.1" x2="62.5" y2="1027.5"/>
							<line id="XMLID_1167_" class="st7" x1="451.9" y1="660.1" x2="68.8" y2="1027.5"/>
							<line id="XMLID_1166_" class="st7" x1="458.2" y1="660.1" x2="75" y2="1027.5"/>
							<line id="XMLID_1165_" class="st7" x1="464.4" y1="660.1" x2="81.2" y2="1027.5"/>
							<line id="XMLID_1164_" class="st7" x1="470.6" y1="660.1" x2="87.5" y2="1027.5"/>
							<line id="XMLID_1163_" class="st7" x1="476.9" y1="660.1" x2="93.7" y2="1027.5"/>
							<line id="XMLID_1162_" class="st7" x1="483.1" y1="660.1" x2="99.9" y2="1027.5"/>
							<line id="XMLID_1161_" class="st7" x1="489.3" y1="660.1" x2="106.2" y2="1027.5"/>
							<line id="XMLID_1160_" class="st7" x1="495.6" y1="660.1" x2="112.4" y2="1027.5"/>
							<line id="XMLID_1159_" class="st7" x1="501.8" y1="660.1" x2="118.6" y2="1027.5"/>
							<line id="XMLID_1158_" class="st7" x1="508" y1="660.1" x2="124.9" y2="1027.5"/>
							<line id="XMLID_1157_" class="st7" x1="514.3" y1="660.1" x2="131.1" y2="1027.5"/>
							<line id="XMLID_1156_" class="st7" x1="520.5" y1="660.1" x2="137.3" y2="1027.5"/>
							<line id="XMLID_1153_" class="st7" x1="526.7" y1="660.1" x2="143.6" y2="1027.5"/>
							<line id="XMLID_1151_" class="st7" x1="533" y1="660.1" x2="149.8" y2="1027.5"/>
							<line id="XMLID_1150_" class="st7" x1="539.2" y1="660.1" x2="156" y2="1027.5"/>
							<line id="XMLID_1149_" class="st7" x1="545.4" y1="660.1" x2="162.3" y2="1027.5"/>
							<line id="XMLID_1148_" class="st7" x1="551.7" y1="660.1" x2="168.5" y2="1027.5"/>
							<line id="XMLID_1147_" class="st7" x1="557.9" y1="660.1" x2="174.7" y2="1027.5"/>
							<line id="XMLID_1146_" class="st7" x1="564.1" y1="660.1" x2="181" y2="1027.5"/>
							<line id="XMLID_1145_" class="st7" x1="570.4" y1="660.1" x2="187.2" y2="1027.5"/>
							<line id="XMLID_1144_" class="st7" x1="632.7" y1="660.1" x2="249.5" y2="1027.5"/>
							<line id="XMLID_1143_" class="st7" x1="576.6" y1="660.1" x2="193.4" y2="1027.5"/>
							<line id="XMLID_1140_" class="st7" x1="582.8" y1="660.1" x2="199.7" y2="1027.5"/>
							<line id="XMLID_1138_" class="st7" x1="589.1" y1="660.1" x2="205.9" y2="1027.5"/>
							<line id="XMLID_1137_" class="st7" x1="595.3" y1="660.1" x2="212.1" y2="1027.5"/>
							<line id="XMLID_1136_" class="st7" x1="601.5" y1="660.1" x2="218.4" y2="1027.5"/>
							<line id="XMLID_1135_" class="st7" x1="607.8" y1="660.1" x2="224.6" y2="1027.5"/>
							<line id="XMLID_1134_" class="st7" x1="614" y1="660.1" x2="230.8" y2="1027.5"/>
							<line id="XMLID_1133_" class="st7" x1="620.2" y1="660.1" x2="237.1" y2="1027.5"/>
							<line id="XMLID_1132_" class="st7" x1="626.5" y1="660.1" x2="243.3" y2="1027.5"/>
							<line id="XMLID_1131_" class="st7" x1="695" y1="660.1" x2="311.9" y2="1027.5"/>
							<line id="XMLID_1130_" class="st7" x1="638.9" y1="660.1" x2="255.8" y2="1027.5"/>
							<line id="XMLID_1129_" class="st7" x1="645.2" y1="660.1" x2="262" y2="1027.5"/>
							<line id="XMLID_1128_" class="st7" x1="651.4" y1="660.1" x2="268.2" y2="1027.5"/>
							<line id="XMLID_1127_" class="st7" x1="657.6" y1="660.1" x2="274.5" y2="1027.5"/>
							<line id="XMLID_1126_" class="st7" x1="663.9" y1="660.1" x2="280.7" y2="1027.5"/>
							<line id="XMLID_1125_" class="st7" x1="670.1" y1="660.1" x2="286.9" y2="1027.5"/>
							<line id="XMLID_1124_" class="st7" x1="676.3" y1="660.1" x2="293.2" y2="1027.5"/>
							<line id="XMLID_1123_" class="st7" x1="682.6" y1="660.1" x2="299.4" y2="1027.5"/>
							<line id="XMLID_1122_" class="st7" x1="688.8" y1="660.1" x2="305.6" y2="1027.5"/>
							<line id="XMLID_1121_" class="st7" x1="757.4" y1="660.1" x2="374.2" y2="1027.5"/>
							<line id="XMLID_1120_" class="st7" x1="701.3" y1="660.1" x2="318.1" y2="1027.5"/>
							<line id="XMLID_1119_" class="st7" x1="707.5" y1="660.1" x2="324.3" y2="1027.5"/>
							<line id="XMLID_1118_" class="st7" x1="713.7" y1="660.1" x2="330.6" y2="1027.5"/>
							<line id="XMLID_1117_" class="st7" x1="720" y1="660.1" x2="336.8" y2="1027.5"/>
							<line id="XMLID_1116_" class="st7" x1="726.2" y1="660.1" x2="343" y2="1027.5"/>
							<line id="XMLID_1115_" class="st7" x1="732.4" y1="660.1" x2="349.3" y2="1027.5"/>
							<line id="XMLID_1114_" class="st7" x1="738.7" y1="660.1" x2="355.5" y2="1027.5"/>
							<line id="XMLID_1113_" class="st7" x1="744.9" y1="660.1" x2="361.7" y2="1027.5"/>
							<line id="XMLID_1112_" class="st7" x1="751.1" y1="660.1" x2="367.9" y2="1027.5"/>
							<line id="XMLID_1111_" class="st7" x1="763.6" y1="660.1" x2="380.4" y2="1027.5"/>
							<line id="XMLID_1110_" class="st7" x1="769.8" y1="660.1" x2="386.6" y2="1027.5"/>
							<line id="XMLID_1109_" class="st7" x1="776.1" y1="660.1" x2="392.9" y2="1027.5"/>
							<line id="XMLID_1108_" class="st7" x1="782.3" y1="660.1" x2="399.1" y2="1027.5"/>
							<line id="XMLID_1107_" class="st7" x1="788.5" y1="660.1" x2="405.3" y2="1027.5"/>
							<line id="XMLID_1106_" class="st7" x1="794.8" y1="660.1" x2="411.6" y2="1027.5"/>
							<line id="XMLID_1105_" class="st7" x1="801" y1="660.1" x2="417.8" y2="1027.5"/>
							<line id="XMLID_1104_" class="st7" x1="807.2" y1="660.1" x2="424" y2="1027.5"/>
							<line id="XMLID_1103_" class="st7" x1="813.5" y1="660.1" x2="430.3" y2="1027.5"/>
							<line id="XMLID_1102_" class="st7" x1="819.7" y1="660.1" x2="436.5" y2="1027.5"/>
							<line id="XMLID_1101_" class="st7" x1="825.9" y1="660.1" x2="442.7" y2="1027.5"/>
						</g>
					</g>
				</g>
			</g>
		</g>
	</g>
</g>
<g>
	<path class="st8" d="M284.5,457.2c-0.4-8.5-0.8-19-0.7-26.6h-0.2c-1.6,7.2-3.6,15.5-5.9,23.8l-8,29.7H265l-7.3-29.5
		c-2.2-8.7-4-16.7-5.2-24h-0.2c-0.2,7.6-0.4,17.9-0.9,27.3l-1.2,26.6h-5.6l3.2-61.9h7.6l7.8,30c1.9,7.4,3.4,14.8,4.6,21.2h0.2
		c1.2-6.2,2.8-13.5,4.9-21.3l8.2-30h7.6l2.9,61.9h-5.9L284.5,457.2z"/>
	<path class="st8" d="M310.4,484.4v-26.2l-14.5-35.7h6.7l6.5,17.1c1.8,4.8,3.1,8.5,4.6,12.8h0.1c1.2-4,2.9-8.1,4.6-12.8l6.6-17.1
		h6.7L316.3,458v26.4H310.4z"/>
	<path class="st8" d="M350.7,423.3c3.7-0.7,8-1.3,12.7-1.3c8.5,0,14.6,2.7,18.6,7.7c4.1,5.1,6.5,12.3,6.5,22.2
		c0,10.1-2.3,18.3-6.6,24.1c-4.4,5.8-11.4,8.9-20.3,8.9c-4.2,0-7.8-0.3-10.8-0.7V423.3z M356.7,478c1.5,0.4,3.7,0.5,6,0.5
		c12.7,0,19.5-9.6,19.5-26.3c0.1-14.6-6.1-23.9-18.6-23.9c-3.1,0-5.4,0.5-6.9,0.8V478z"/>
	<path class="st8" d="M419.5,455.3h-17.8v22.4h19.9v6.6h-25.9v-61.9h24.8v6.6h-18.9v19.7h17.8V455.3z"/>
	<path class="st8" d="M437.6,429.2h-14v-6.8h34v6.8h-14v55.1h-6V429.2z"/>
	<path class="st8" d="M469.8,464.9l-4.7,19.5h-6.2l15.7-61.9h7.1l15.7,61.9H491l-4.9-19.5H469.8z M484.8,458.6l-4.5-17.8
		c-1-4-1.7-7.7-2.4-11.3h-0.2c-0.6,3.7-1.4,7.4-2.2,11.2l-4.5,17.9H484.8z"/>
	<path class="st8" d="M509.6,422.4v61.9h-6v-61.9H509.6z"/>
	<path class="st8" d="M519.5,422.4h6v55.1h19.6v6.8h-25.6V422.4z"/>
	<path class="st8" d="M550.6,474.6c2.7,2.2,6.5,4,10.6,4c6.1,0,9.6-4.3,9.6-10.6c0-5.8-2.5-9.1-8.7-12.3c-7.4-3.5-12-8.9-12-17.6
		c0-9.6,5.9-16.7,14.8-16.7c4.6,0,8.1,1.5,10.1,2.9l-1.6,6.5c-1.5-1.1-4.6-2.9-8.7-2.9c-6.3,0-8.6,5.1-8.6,9.3
		c0,5.8,2.8,8.6,9.1,11.9c7.8,4.1,11.7,9.1,11.7,18.2c0,9.6-5.2,17.9-16.1,17.9c-4.5,0-9.3-1.8-11.8-4L550.6,474.6z"/>
	<path class="st8" d="M584.8,447.2c0-3.4,1.7-5.8,4.1-5.8c2.4,0,3.9,2.4,4,5.8c0,3.1-1.6,5.7-4.1,5.7
		C586.5,452.9,584.8,450.4,584.8,447.2z M584.8,479.7c0-3.4,1.7-5.8,4.1-5.8c2.4,0,3.9,2.3,4,5.8c0,3.2-1.6,5.7-4.1,5.7
		C586.5,485.4,584.8,482.9,584.8,479.7z"/>
</g>
<g>
	<g>
		<rect x="168.7" y="548.5" class="st9" width="317.3" height="72.4"/>
		<path class="st10" d="M168.7,548.5v72.4H486v-72.4H168.7z M481,619.6H173.6v-70.1H481V619.6z"/>
		<g class="st11">
			<path class="st10" d="M178.4,618c1.3,0.6,2.9,1.2,4.5,1.8c0.5,0.2,1.2,0.4,1.8,0.6c0,0,0.2,0,0.5,0.1h0.8
				c-5.2-1.5-8.6-3.5-10.9-5.3c-1.4-1.1-2.8-2.2-3.3-3.4c-0.1-0.2-0.1-0.4-0.1-0.6c-0.1-0.9,2.6-0.3,4.1,0
				c5.7,1.3,11.1,2.8,16.7,4.1c6.1,1.5,12.6,3.1,16.5,5c0.2,0.1,0.8-0.1,0.8-0.2c-1.2-1-4.6-1.9-7.2-2.7c-3.7-1.1-7.8-2.2-12.1-3.2
				c-3.7-0.9-7.2-1.8-10.8-2.7c-1.6-0.4-4.9-1.5-7.7-1.2c-4.1,0.5-0.6,3.1,0.2,3.7C173.5,615.4,175.8,616.7,178.4,618z"/>
			<path class="st10" d="M181.9,617.4c2.3,1.1,5.5,2,8.7,3c0.1,0,0.1,0,0.2,0.1h1.5c-2.5-0.8-4.9-1.5-7-2.4
				c-2.3-0.9-4.1-1.9-5.7-2.8c-0.7-0.4-1.2-0.8-1.7-1.2c-0.3-0.3-1.3-0.9,0.8-0.5c3.5,0.7,5.9,1.7,8.7,2.5c2.7,0.8,5.3,1.6,7.9,2.4
				c2.1,0.7,4.3,1.3,6.4,2h0.8c-3.3-1.1-6.7-2.2-9.9-3.3c-2.8-1-5.8-1.9-8.7-2.8c-1-0.3-4.6-1.7-7.2-1.4c-1.5,0.2-1.1,0.6-0.8,0.9
				C177.4,615,179.3,616.2,181.9,617.4z"/>
			<path class="st10" d="M219.8,619.3c-7.8-1.7-14.4-3.7-22.3-5.4c-3.5-0.7-7.1-1.4-10.4-2.2c-3.7-0.9-6.7-2-10.1-2.9
				c-2.5-0.7-5-1.5-7.6-2.2v0.4c1.9,0.6,3.8,1.2,5.7,1.7c3.1,0.9,6.1,1.9,9.1,2.8c3.1,0.9,7.1,1.7,10.9,2.5c8.1,1.7,15,3.6,22.6,5.3
				c1.7,0.4,3.5,0.8,5.3,1.1h1.6C223.1,620,221.4,619.7,219.8,619.3z"/>
			<path class="st10" d="M223.2,617.8c-4.2-0.9-8.5-1.8-12-2.8c-3.6-1.1-7.3-2.1-11.1-3.1c-3.6-0.9-8-1.7-12-2.5
				c-4.6-1-8.6-2.1-12.8-3.1c-2-0.5-3.9-1-5.8-1.6v0.6c1.5,0.4,3.1,0.9,4.6,1.3c4.1,1.1,8.2,2.2,12.8,3.1c4.4,0.9,9,1.7,12.9,2.8
				c3.9,1,7.5,2.1,11.1,3.1c3.6,1,8.1,1.9,12.4,2.8c3.2,0.7,6.5,1.4,9.6,2.1h2.2C231.3,619.5,227.2,618.6,223.2,617.8z"/>
			<path class="st10" d="M270.1,616.5c-13.9-1.9-28.4-3.7-42.8-5.5c-13.5-1.7-27.8-3-41-4.8c-6.3-0.9-11.7-2-17-3.1v0.3
				c4.3,1,8.7,1.9,13.7,2.7c6,1,12.6,1.7,19.2,2.4c7.2,0.8,14.2,1.6,21.2,2.5c14.4,1.8,28.9,3.6,43.1,5.4c9.2,1.2,17.9,2.6,26.7,4
				h1.7C286.8,619.1,278.7,617.7,270.1,616.5z"/>
			<path class="st10" d="M205.2,612.1c3.9,0.8,7.2,1.7,10.9,2.6c6.9,1.5,14.8,2.8,21.7,4.4c2,0.4,3.9,0.9,5.8,1.4h1.1
				c-1-0.2-2-0.5-3.1-0.7c-6-1.5-12.7-2.7-19.3-4c-6.7-1.3-12.1-2.9-18.4-4.3c-1.4-0.3-2.7-0.6-4-1c-1.8-0.5-1.1-0.6,1.2-0.3
				c3.5,0.4,7.1,0.7,10.7,1.1c8,0.8,16.3,1.5,24.1,2.4c7.8,0.9,15.3,2,22.7,3c7.3,1.1,15,1.9,22.5,2.9c2.3,0.3,4.6,0.6,6.9,1h1.7
				c-3.2-0.5-6.6-1.1-10.1-1.5c-8.7-1.1-17-2.2-25.4-3.5c-8.2-1.2-16.7-2.2-25.7-3.1c-8.4-0.8-16.7-1.7-25.2-2.5
				c-2.3-0.2-7.6-0.6-5.4,0.5C199.1,611,202.9,611.6,205.2,612.1z"/>
			<path class="st10" d="M237.8,617c4.6,0.9,9,2,13.4,3c0.5,0.1,1,0.2,1.6,0.4h1.7c-3.6-0.9-7.2-1.7-10.9-2.5
				c-3.7-0.8-7.4-1.6-11.3-2.4c-1-0.2-6.3-1.2-2.7-1.2c2.6,0,6.3,0.4,8.6,0.6c9.3,1,17.1,2.6,25.6,3.8c3.8,0.6,7.5,1.1,11.2,1.7h2
				c-5.6-0.9-11.6-1.7-17.2-2.6c-9.1-1.4-18.1-3.4-29.5-3.9c-1.1,0-4,0.2-3.7,0.5C227.5,615.5,234.7,616.4,237.8,617z"/>
			<path class="st10" d="M251.8,618.7c2.9,0.6,6.3,1.1,9.4,1.7h1.6c-1.4-0.3-2.9-0.6-4.3-0.9c-2.2-0.4-4.5-0.8-6.6-1.2
				c-0.3,0-2.9-0.7-1.5-0.5c1.1,0.1,2.1,0.4,2.9,0.5c3.7,0.8,8.2,1.4,12.5,2h2.6c-0.5-0.1-1.1-0.2-1.6-0.3
				c-3.9-0.6-7.7-1.2-11.6-1.9c-1.4-0.2-3.4-0.9-5.3-0.8C246.6,617.7,251.1,618.6,251.8,618.7z"/>
			<path class="st10" d="M352.4,619.7c-22-2.8-44.7-5-68.8-6.6c-12.1-0.8-23.8-1.7-35.3-3c-10.8-1.2-21.3-2.5-32.1-3.7
				c-10.9-1.2-22.2-2.1-32.5-3.6c-5.3-0.8-9.9-1.7-14.3-2.7v0.3c3.8,0.9,7.8,1.8,12.2,2.5c9.9,1.7,21.4,2.4,32,3.7
				c5.1,0.6,10.5,1.1,15.6,1.8c5.4,0.7,10.9,1.4,16.5,2c10.9,1.2,22.2,2.2,33.8,2.9c24.7,1.6,47.8,3.8,70.3,6.6
				c1.7,0.2,3.3,0.4,5,0.6h3.2C356.2,620.2,354.3,619.9,352.4,619.7z"/>
			<path class="st10" d="M323.4,619.1c-7.9-1-16.1-1.9-23.5-3c-3.4-0.5-7.1-0.9-10.9-1.1c-4.6-0.4-9-0.8-13.6-1.2
				c-9.8-0.8-20.2-1.4-29.1-2.7c-3.3-0.5-7.3-0.7-10.9-1c-4.3-0.4-8.6-0.8-12.7-1.2c-8.3-0.9-16.3-1.8-24.4-2.8
				c-8.3-1-16.1-2.3-23.9-3.5c-1.7-0.3-3.4-0.5-5.1-0.8v0.3c1,0.2,2,0.4,3.1,0.5c8.1,1.3,16.4,2.6,25.1,3.7c7.5,1,15.3,1.9,23.2,2.7
				c3.2,0.3,6.4,0.7,9.7,1c4.9,0.4,10.5,0.8,15,1.4c7.8,1,16.1,1.6,24.5,2.4c9.7,0.8,20.2,1.4,29.1,2.6c8.2,1.1,16.6,2.1,25,3.1
				c2.7,0.3,5.4,0.7,8.1,1h1.8C330.5,620,327,619.5,323.4,619.1z"/>
			<path class="st10" d="M383.6,619.7c-10.3-1.7-20.9-3.3-31.9-4.7c-22.1-2.9-46.5-4.8-69.6-7.2c-10.8-1.1-21.9-2-32.9-3
				c-12.4-1.1-24.2-2.5-35.6-4.1c-10-1.4-21-2.5-30.6-4.1c-4.8-0.8-9.2-1.7-13.6-2.6v0.3c3.8,0.8,7.6,1.6,11.6,2.4
				c9.5,1.7,21.1,2.9,31.5,4.3c10.5,1.5,21.4,2.7,32.7,3.9c11.8,1.2,24.1,2.1,35.8,3.3c23.2,2.4,47.4,4.4,69.8,7.1
				c10.7,1.3,20.9,2.8,30.8,4.4c1.4,0.2,2.9,0.5,4.3,0.7h2C386.5,620.2,385,620,383.6,619.7z"/>
			<path class="st10" d="M242.6,606.8c-1.5-0.5-4.7-0.6-7-0.8c-4.7-0.4-9-1-13.4-1.5c-4.2-0.5-8.2-1.1-12.4-1.6
				c-4.2-0.5-8.3-1-12.2-1.6c-7.6-1.2-14.6-2.6-21.8-3.8c-2.3-0.4-4.4-0.8-6.4-1.3v0.2c1.5,0.4,3,0.7,4.7,1
				c6.6,1.3,13.4,2.5,20.4,3.7c6.8,1.2,14.6,1.8,21.8,2.9c6.6,0.9,13.7,1.8,21.1,2.4c1.5,0.1,3,0.2,4.3,0.4c-1,0.1-2,0-3,0
				c-0.9,0-1.7-0.1-2.6-0.1c-4.2-0.2-8.3-0.5-12.4-0.8c-9-0.6-17.6-1.3-25.8-2.4c-3.6-0.5-7.1-1-10.5-1.6c-3.3-0.5-6.9-1-10-1.6
				c-2.7-0.5-5.3-1.1-7.9-1.6v0.3c8.5,1.7,17.9,3.2,27.9,4.6c6.7,0.9,14.1,1.6,21.5,2.1c4.1,0.3,8.2,0.6,12.3,0.8
				c3.5,0.2,7.5,0.5,11.2,0.5C242.4,606.9,242.7,606.8,242.6,606.8z"/>
			<path class="st10" d="M369.9,614.1c-11.2-1.5-22.4-3.2-34.4-4.3c-12.3-1.2-24.3-2.5-36.5-3.7c-12.2-1.2-24.5-2.3-36.9-3.5
				c-12.5-1.1-25.3-2-37.7-3.2c-12.2-1.1-23.7-2.5-33.8-4.4c-7.1-1.3-14.2-2.7-21-4.2v0.2c3.7,0.8,7.5,1.6,11.2,2.3
				c9.3,2,18.8,3.7,30.3,5c11.4,1.3,23.3,2.2,35.2,3.2c13.4,1.1,26.5,2.3,39.5,3.6c12.4,1.2,24.6,2.5,36.9,3.7
				c5.8,0.6,11.8,1.1,17.5,1.7c6.2,0.7,12,1.5,17.9,2.3c11.1,1.5,22.1,3.1,33.3,4.6c6.5,0.9,12.7,1.8,18.9,2.8h1.8
				C398.1,618.2,384.3,616.1,369.9,614.1z"/>
			<path class="st10" d="M427.7,613.8c-8.3-2-16.3-4.1-24.4-6.2c-8.8-2.2-18.1-4.3-27.4-6.4c-9-2.1-18.6-3.9-29.2-5.6
				c-11.1-1.7-22.8-3.2-33.6-4.9c-21.8-3.6-45.1-6.8-68.2-9.9c-9.6-1.3-19.1-2.7-28.1-4.1c-8.8-1.4-16.8-3.2-24.5-4.9
				c-7.7-1.7-15.1-3.6-22.2-5.4c-0.2-0.1-0.4-0.1-0.6-0.2v0.4c8.6,2.2,17,4.4,26.3,6.5c9.4,2.1,19.4,4,30.4,5.6
				c11.1,1.7,22.7,3.2,34.1,4.8c11.5,1.6,22.9,3.2,34.2,4.9c11.4,1.7,22.1,3.6,33.6,5.2c11,1.6,22,3.1,32.1,5
				c10.2,1.9,19.3,4.1,28.5,6.2c22.7,5.1,42.5,11,66.9,15.7h2.5C447.3,618.4,437.3,616.1,427.7,613.8z"/>
			<path class="st10" d="M276.3,593.2c-1.9-1.1-6.3-2-9.9-2.8c-4.8-1.1-9.5-2.2-14.3-3.3c-9.3-2.1-18.4-4.3-28.4-6.2
				c-10-1.9-19.1-4.1-29.8-5.8c-8.2-1.3-16.7-2.6-24.4-4.1v0.2c2.1,0.4,4.1,0.8,6.4,1.2c9.7,1.7,19.8,3.2,29.1,5.1
				c19.5,3.8,37.6,8,55.8,12.1c4.4,1,9,2,12.7,3.1c6.5,2.1-10.1,1.4-13.5,1.2c-12.2-0.5-23.6-1.8-34-3.3c-5.3-0.8-10.4-1.7-15.7-2.5
				c-5.2-0.8-11.1-1.4-16.6-2.1c-5.6-0.7-11.3-1.3-16.7-2.1c-2.5-0.3-5-0.7-7.5-1.1v0.2c2.4,0.3,4.8,0.7,7.1,1
				c5.8,0.9,12.1,1.5,18.1,2.2c5.5,0.7,11.2,1.4,16.4,2.2c5.7,0.9,11.1,1.8,16.8,2.7c10,1.5,21.3,2.6,33,3.1
				C263.3,594.4,279.2,595,276.3,593.2z"/>
			<path class="st10" d="M421.1,616.3c-20.2-3.8-45.2-6.3-68.3-9c-12.1-1.4-24.3-2.7-36.7-3.9c-12.6-1.3-24.7-2.7-37-4.1
				c-12-1.3-24.6-2.4-36.8-3.7c-11.3-1.2-23-2-33.8-3.4c-14.4-1.8-27.2-4.2-39-6.8v0.2c13.3,3,27.8,5.7,44.5,7.7
				c10.9,1.3,23,2.2,34.2,3.3c12.3,1.3,25,2.4,37.2,3.8c24.4,2.8,49.3,5.2,73.6,8c23.5,2.7,47,5.3,67.3,9.2
				c4.7,0.9,9.4,1.8,14.1,2.7h1.8C435.2,619,428.2,617.7,421.1,616.3z"/>
			<path class="st10" d="M433.6,605.2c-22.4-3.4-43-7.2-64.5-10.9c-10.7-1.8-21.7-3.5-32.8-5.2c-11.4-1.7-22.6-3.5-34.7-5
				c-11.7-1.5-23.4-2.9-34.7-4.6c-10.9-1.6-20.9-3.4-31.3-5.2c-17.5-3-33.4-6.3-49.6-9.6c-5.7-1.2-11.3-2.3-16.7-3.5v0.4
				c7.7,1.8,16,3.4,24.1,5.1c19.2,4.1,39.5,7.8,60.8,11.3c21.8,3.6,46.5,6.1,68.6,9.5c11.1,1.7,22.5,3.3,33.5,5.1
				c11,1.7,21.5,3.6,32,5.5c17.7,3.1,35.9,6.1,54.8,8.8c14.5,2.1,28.7,4.3,41.6,6.9v-0.4C469.2,610.4,451.1,607.9,433.6,605.2z"/>
			<path class="st10" d="M442.4,613.9c6.3,1.4,13.2,2.7,19.9,4c4.2,0.8,8.2,1.7,12.2,2.5h0.5c-8.7-1.9-17.6-3.7-26.3-5.5
				c-5.5-1.2-10.8-2.5-15.5-3.8c-2.4-0.7-4.9-1.4-7.1-2.1c-1.3-0.4-2-0.9,1.3-0.7c2,0.1,3.9,0.3,5.8,0.5c6.3,0.8,10.9,2,16.6,2.9
				c5.9,1,11.6,2,17.3,3c5.5,1,11.5,1.9,17.2,2.8c0.2,0,0.4,0.1,0.7,0.1v-0.4c-0.3-0.1-0.7-0.1-1-0.2c-6.7-1.2-13.4-2.3-19.9-3.6
				c-6.5-1.2-13.5-2.3-20-3.6c-3-0.6-6.2-1-9.5-1.5c-2-0.3-6.2-0.7-8.5-0.6c-4.3,0.1-3.3,1-1.3,1.6C430,611,436.1,612.5,442.4,613.9
				z"/>
			<path class="st10" d="M471,607.1c-14.8-2.5-29.1-5.3-42.7-8.2c-14.2-3-29.5-5.9-45.6-8.4c-16.9-2.6-34.9-4.7-52.2-7.1
				c-33.2-4.7-64.3-9.9-95.9-15.1c-16.2-2.7-30.4-6-43.9-9.3c-7.7-1.9-14.9-3.8-21.3-5.8v1.1c15.6,5.2,37.2,9.7,58.1,13.7
				c15.5,2.9,32.5,5.6,49.1,8.1c16.4,2.5,32.8,5,49.5,7.4c17.1,2.5,34.9,4.7,52,7.2c16.6,2.4,30.8,5.5,46,8.3
				c14.4,2.7,28.3,5.5,43.3,8.1c5.7,1,11.6,1.9,17.6,2.8v-0.5C480.2,608.7,475.6,607.9,471,607.1z"/>
			<path class="st10" d="M216,583.3c-7.9-2-16.4-3.9-24.9-5.7c-6.6-1.4-14-2.7-21.7-3.8v0.9c0.4,0.1,0.7,0.1,0.9,0.1
				c6.6,1,12.9,2.1,18.9,3.3c12.7,2.5,24.7,5.2,36.7,7.8c3,0.7,5.9,1.6,0.2,0.7c-2.8-0.5-6.5-0.9-9.6-1.3c-7.2-0.9-14.2-2-21-3.1
				c-8.7-1.4-17.4-2.9-26.2-4.3v0.5c7.4,1.2,14.8,2.5,22.4,3.7c6.9,1.1,14,2.1,21.1,3.1c5.3,0.7,11.6,1.9,17.7,2.3
				c0.3,0,0.7-0.1,0.6-0.2C229.3,585.8,220.7,584.5,216,583.3z"/>
			<path class="st10" d="M241.9,588.1c-4-1-8-2-11.9-3.1c-7.2-2-15.3-3.8-23.7-5.5c-11.8-2.4-24.2-4.5-36.9-6.6v0.9
				c8.7,1.4,17.7,2.8,25.8,4.4c14.9,3,28.3,5.9,41.4,9.3c2.6,0.7,5.4,1.3,8,1.9c1,0.9-0.5,1-4.3,0.3c-2.3-0.3-4.5-0.7-6.7-1
				c-7.7-1-16-1.8-23.9-2.8c-13.3-1.6-27.4-3.2-40.3-5.1v0.4c12.4,1.9,26.1,3.5,39,5.1c8.7,1.1,17.8,1.9,26.4,3.1
				c3.5,0.5,8.4,1.7,12.7,1c0.4-0.1,0.8-0.2,0.7-0.3C247.2,589.2,244.4,588.7,241.9,588.1z"/>
			<path class="st10" d="M413.2,582.9c-31-3-63.8-4.7-95.5-7.2c-33-2.6-62.9-7.3-90.2-12.2c-13.4-2.4-26.4-5.1-38.8-7.9
				c-7.4-1.6-13.7-3.4-19.4-5.2v0.8c3.5,1.2,7.2,2.3,11.6,3.3c11.9,2.9,25.4,5.3,38.1,8c12.9,2.7,28.2,4.9,42.6,7.2
				c13.4,2.1,27.6,4.1,42.9,5.5c33,3,68,4.6,101.1,7.6c27.3,2.5,53.6,5.5,79.2,8.8v-0.6C461.8,588,437.8,585.3,413.2,582.9z"/>
			<path class="st10" d="M484.8,605.7c-10.7-2.2-20.2-4.8-30.2-7.2c-18.8-4.5-45.5-6.5-67.2-10.1c-5.4-0.9-10.7-1.9-14.8-3.1
				c-3.2-0.9-4.8-1.8,1.8-1.7c3.2,0,6.3,0.2,9.3,0.4c12.3,0.9,24.5,1.9,36.9,2.8c13.9,1,26.9,2.2,39,4.1c8.6,1.3,16.7,2.9,25.1,4.3
				v-0.6c-8.7-1.5-17-3.1-26-4.5c-13-2-28-3.2-43-4.2c-13-0.9-26.5-2.5-40-2.8c-3.5-0.1-13.6,0.4-8.2,1.8c10.5,2.7,22,4.7,35.5,6.6
				c13.7,1.9,28.2,3.3,41.2,5.5c6.5,1.1,11.9,2.7,17.3,4c5.7,1.4,11.7,2.8,17.5,4.2c1.8,0.4,3.7,0.9,5.7,1.3V605.7z"/>
			<path class="st10" d="M484.8,602.8c-7.3-1.7-14.6-3.4-23.2-4.8c-7.3-1.2-13.9-2.6-20.9-3.9c-5.9-1.1-13.5-2.2-16.8-3.9
				c-1.5-0.7,12.9,0.5,12.9,0.5c4.2,0.5,8,1.2,11.8,1.8c7.4,1.2,15.4,2.3,22.9,3.5c4.6,0.7,9,1.5,13.3,2.3v-0.7
				c-5.3-1-11-2-16.9-2.9c-9-1.4-18-2.8-27.1-4.2c-4.4-0.7-12.6-1.8-17.7-1c-7.8,1.3,20,5.6,23.1,6.2c8.3,1.6,17.3,2.9,25.2,4.6
				c4.5,1,8.9,1.9,13.4,2.9V602.8z"/>
			<path class="st10" d="M484.8,601.5c-6-1.3-12.8-2.6-17.6-4.1c3.8,0.3,7.5,1.3,10.2,1.8c2.5,0.4,4.9,0.9,7.4,1.3v-0.4
				c-2.7-0.5-5.5-1.1-8.2-1.6c-3.2-0.6-6.4-1.7-11.1-1.6c-0.5,0-1.5,0.3-1.2,0.4c4.6,1.7,12.1,3.1,18.4,4.5c0.7,0.2,1.4,0.3,2.1,0.5
				V601.5z"/>
			<path class="st10" d="M414.2,574.8c-32.7-2.2-66.1-3.7-98.7-6c-16.3-1.1-32.2-2.5-47.2-4.4c-13.7-1.8-26.5-3.9-39.2-6
				c-17.9-3-36.5-6.2-52.4-9.9h-2.6c14.5,3.6,31.7,6.7,48.5,9.6c12.7,2.1,25.2,4.3,38.6,6.2c13.8,2,28.3,3.3,43.6,4.5
				c32.5,2.5,66.3,3.7,99.3,5.8c16,1,32.2,2,48.1,3.1c11.2,0.8,22.1,1.9,32.6,3.1v-0.4c-7.4-0.9-15-1.6-22.8-2.3
				C446.5,576.6,430.2,575.8,414.2,574.8z"/>
			<path class="st10" d="M484.8,588.6c-22.7-3-46.2-5.8-69.9-8.3c-29.3-3.1-64.1-2.4-92.4-6.3c-3.4-0.5,5.2-0.5,5.5-0.5
				c1.8,0,3.6,0,5.5,0c8.6,0.1,16.8,1.2,25.2,1.5c16.8,0.7,34,0.5,50.7,1.2c7.7,0.3,15.4,1.2,22.8,1.8c9.6,0.8,18.9,1.7,27.9,2.8
				c7.9,1,15.6,2,23.7,2.9c0.4,0,0.8,0.1,1.2,0.1v-0.6c-2.4-0.3-4.8-0.6-7.2-0.9c-9-1.1-17.5-2.3-26.6-3.3
				c-7.5-0.8-15.5-1.5-23.4-2.1c-9.5-0.7-17.7-1.5-27.9-1.5c-19.6-0.1-38.5-0.6-57.1-2c-4.2-0.3-19.2-1.1-23.1,0.1
				c-3.7,1.1,21.4,2.7,23.8,2.9c17.8,1.4,35.9,1.7,53.9,2.8c19,1.1,37.8,3.8,55,5.9c10.9,1.3,21.7,2.7,32.5,4.1V588.6z"/>
			<path class="st10" d="M462,574.8c-12.2-1.8-24.4-3.5-37.4-5c-26.2-3-53.4-5.6-79.8-8.5c-25.3-2.8-52.9-4.5-79-6.8
				c-14.5-1.3-29.2-2.3-43-4c-4.7-0.6-9.2-1.3-13.5-2h-2.1c14.3,2.5,30.3,4.3,48.3,5.8c13.7,1.1,26.8,2.6,40.6,3.7
				c14.6,1.1,29.5,2.3,43.5,3.8c26.6,2.8,53.3,5.6,79.9,8.5c13.1,1.4,25.5,3.1,37.7,4.8c9,1.3,18.3,2.4,27.6,3.4v-0.7
				c-1.5-0.2-3-0.3-4.5-0.5C474,576.5,468,575.6,462,574.8z"/>
			<path class="st10" d="M375.9,569.4c-3.3-1.3-14.4-2-20-2.7c-10.2-1.3-20-2.8-30.4-4c-9.9-1.1-20.2-2-30.1-3.2
				c-8.7-1-18.2-1.7-27.7-2.2c-4.2-0.2-7.4-0.7-10,0.3c-2.5,0.9,5.8,2.1,8,2.4c16.1,2.7,37.4,4.6,56.8,5.6c0.7,0,1.5-0.3,1.4-0.4
				c-0.7-0.8-10.5-1.7-13.3-2.2c-4.4-0.7-9.2-1.2-13.9-1.7c-3.5-0.4-8.1-0.4-11.3-0.9c-0.5-0.1-1.8,0.3-1.2,0.4
				c2.1,0.3,4.6,0.4,7,0.5c4.4,0.2,9.4,1,13.4,1.5c3.6,0.4,6.7,1,10.2,1.5c1.3,0.2,3.8,0.4,5.6,0.7c-14.4-0.9-28.8-2.2-41.7-3.8
				c-5.3-0.7-10.6-1.4-15.4-2.2c-2.5-0.3-2.9-0.8-1.1-1.4c1.4,0.1,2.8,0.2,4.2,0.4c3.5,0.3,7,0.7,10.7,0.9
				c7.6,0.4,14.6,1.3,21.5,2.1c7.2,0.8,14.8,1.4,22.2,2.2c14.5,1.5,27.7,3.6,42.2,5.1c3.3,0.3,15.4,1.6,5.5,1.5
				c-7.8,0-14.9-0.4-22.4-0.9c-16.3-1-31.7-2.9-47.2-4.4c-29.2-2.9-56.7-6.3-80.6-11.1c-0.3-0.1-0.9,0.1-0.7,0.2
				c23.6,5,50.4,8.5,79.7,11.3c14.7,1.4,29.2,3.1,44.5,4.2c8.5,0.6,25.2,2,33.6,0.7C375.5,569.6,376.1,569.5,375.9,569.4z"/>
			<path class="st10" d="M439.7,568.7c-22.5-2.9-45.4-5.8-68.9-8.3c-10.8-1.2-21.8-2.2-33-3.1c-12.4-1-25.1-1.7-37.1-3
				c-11.2-1.2-22.6-2.3-33.7-3.5c-6.3-0.7-12.2-1.5-18.1-2.4h-3.5c5.6,0.9,11.1,1.8,17.1,2.6c11.6,1.5,24,2.7,36,4
				c10,1.1,20.7,1.8,31.3,2.6c14.4,1,28.5,2.2,42.1,3.7c24.4,2.6,48.3,5.6,71.7,8.6c12.4,1.6,24.6,3.4,36.8,5.1
				c1.4,0.2,2.9,0.4,4.4,0.6V575c-3.9-0.5-7.6-1.1-11.4-1.7C462.3,571.7,451.1,570.2,439.7,568.7z"/>
			<path class="st10" d="M464.8,564.9c-11.3-2.9-21.8-5.9-32.8-8.8c-10.5-2.8-22.7-5.1-34-7.7h-6.2c1.6,0.3,3.1,0.7,4.7,1
				c11.6,2.6,24.1,5.1,35,7.9c11.2,2.9,21.9,5.9,33.4,8.7c5.9,1.4,12.5,3.1,19.9,4.4v-0.7C477.4,568.3,470.8,566.4,464.8,564.9z"/>
			<path class="st10" d="M440.7,560.7c-18-4.6-41.2-7.9-60.6-12.2h-2.6c15.8,3.7,34.3,6.8,51.3,10.3c9,1.9,16.6,4,24.2,6.2
				c6.7,1.9-8.9,0.4-11.7,0.2c-7.8-0.8-15.1-1.7-22.2-2.8c-11.5-1.7-22-3.6-32.7-5.5c-11.7-2.1-24.3-3.6-37.9-4.9
				c-12.3-1.2-25.9-1.8-38.6-2.8c-2.7-0.2-5.3-0.4-7.9-0.6h-6.9c3.5,0.3,7.1,0.6,10.6,0.9c16.3,1.3,33.2,2.2,48.9,3.9
				c30.9,3.2,53.5,9.3,84.9,12.4c2.9,0.3,16.2,1.8,17.7,0.4c0.7-0.6-1-1.1-2.5-1.6C450.6,563.1,445.5,561.9,440.7,560.7z"/>
			<path class="st10" d="M394.2,553.8c-7-1.4-13.5-3-20.4-4.4c-1.5-0.3-3-0.6-4.6-1h-4c2.4,0.5,4.7,0.9,7,1.4
				c6.2,1.3,12.4,2.5,18.4,3.8c2.5,0.5,5.1,1.1,7.5,1.7c0.7,0.2,5.6,1,1.2,0.5c-6.4-0.7-11.9-1.6-17.9-2.5c-6.7-1-14.1-1.6-21.4-2.3
				c-8.3-0.8-16.9-1.7-25.3-2.5h-4.4c10.2,1.2,20.8,2.2,31,3.3c8.2,0.8,16,1.6,23.4,2.8c5.3,0.8,11.6,1.8,18,2.2
				c0.5,0,1.3-0.2,1.3-0.3C403.3,555.4,397.3,554.4,394.2,553.8z"/>
			<path class="st10" d="M445.8,554.1c-9-1.7-17.9-3.5-26.9-5.2c-0.8-0.1-1.6-0.3-2.4-0.4h-4.1c0.1,0,0.2,0,0.3,0.1
				c8.6,1.8,17.2,3.7,26,5.5c8.6,1.8,17.7,3.4,26.7,5.1c6.2,1.2,12.8,2.1,19.4,3.1V561c-3.9-0.7-8-1.3-11.9-2
				C463.7,557.5,454.5,555.8,445.8,554.1z"/>
			<path class="st10" d="M465.3,552.6c-5.9-1.2-11.5-2.5-17-3.8c-0.5-0.1-1.1-0.3-1.8-0.4h-2.4c5.7,1.4,11.4,2.8,17.5,4.1
				c7.4,1.6,15.4,3.1,23.3,4.6v-0.8c-0.6-0.1-1.1-0.2-1.7-0.3C477.4,554.8,471.1,553.8,465.3,552.6z"/>
			<path class="st10" d="M444.7,550c-2.1-0.5-4.1-1-6.1-1.5h-1.6c1.5,0.4,3,0.8,4.6,1.2c6.3,1.6,13,3.1,19.9,4.5
				c7.1,1.5,14.8,3.2,23.2,4.6v-0.6c-7.8-1.3-15-2.9-22-4.3C456.5,552.6,450.6,551.3,444.7,550z"/>
			<path class="st10" d="M473.3,548.4c3.7,0.7,7.5,1.4,11.5,2v-0.8c-2.5-0.4-5-0.8-7.4-1.2H473.3z"/>
		</g>
	</g>
	<polygon class="st12" points="175.7,610.7 175.7,550 474.5,550 180,551.1 	"/>
</g>
<g>
	<g>
		<rect x="166.6" y="654.4" class="st9" width="317.3" height="72.4"/>
		<path class="st10" d="M166.6,654.4v72.4h317.3v-72.4H166.6z M479,725.4H171.6v-70.1H479V725.4z"/>
		<g class="st11">
			<path class="st10" d="M176.4,723.8c1.3,0.6,2.9,1.2,4.5,1.8c0.5,0.2,1.2,0.4,1.8,0.6c0,0,0.2,0,0.5,0.1h0.8
				c-5.2-1.5-8.6-3.5-10.9-5.3c-1.4-1.1-2.8-2.2-3.3-3.4c-0.1-0.2-0.1-0.4-0.1-0.6c-0.1-0.9,2.6-0.3,4.1,0
				c5.7,1.3,11.1,2.8,16.7,4.1c6.1,1.5,12.6,3.1,16.5,5c0.2,0.1,0.8-0.1,0.8-0.2c-1.2-1-4.6-1.9-7.2-2.7c-3.7-1.1-7.8-2.2-12.1-3.2
				c-3.7-0.9-7.2-1.8-10.8-2.7c-1.6-0.4-4.9-1.5-7.7-1.2c-4.1,0.5-0.6,3.1,0.2,3.7C171.5,721.2,173.7,722.6,176.4,723.8z"/>
			<path class="st10" d="M179.8,723.2c2.3,1.1,5.5,2,8.7,3c0.1,0,0.1,0,0.2,0.1h1.5c-2.5-0.8-4.9-1.5-7-2.4
				c-2.3-0.9-4.1-1.9-5.7-2.8c-0.7-0.4-1.2-0.8-1.7-1.2c-0.3-0.3-1.3-0.9,0.8-0.5c3.5,0.7,5.9,1.7,8.7,2.5c2.7,0.8,5.3,1.6,7.9,2.4
				c2.1,0.7,4.3,1.3,6.4,2h0.8c-3.3-1.1-6.7-2.2-9.9-3.3c-2.8-1-5.8-1.9-8.7-2.8c-1-0.3-4.6-1.7-7.2-1.4c-1.5,0.2-1.1,0.6-0.8,0.9
				C175.3,720.9,177.3,722.1,179.8,723.2z"/>
			<path class="st10" d="M217.7,725.2c-7.8-1.7-14.4-3.7-22.3-5.4c-3.5-0.7-7.1-1.4-10.4-2.2c-3.7-0.9-6.7-2-10.1-2.9
				c-2.5-0.7-5-1.5-7.6-2.2v0.4c1.9,0.6,3.8,1.2,5.7,1.7c3.1,0.9,6.1,1.9,9.1,2.8c3.1,0.9,7.1,1.7,10.9,2.5c8.1,1.7,15,3.6,22.6,5.3
				c1.7,0.4,3.5,0.8,5.3,1.1h1.6C221,725.9,219.4,725.5,217.7,725.2z"/>
			<path class="st10" d="M221.1,723.6c-4.2-0.9-8.5-1.8-12-2.8c-3.6-1.1-7.3-2.1-11.1-3.1c-3.6-0.9-8-1.7-12-2.5
				c-4.6-1-8.6-2.1-12.8-3.1c-2-0.5-3.9-1-5.8-1.6v0.6c1.5,0.4,3.1,0.9,4.6,1.3c4.1,1.1,8.2,2.2,12.8,3.1c4.4,0.9,9,1.7,12.9,2.8
				c3.9,1,7.5,2.1,11.1,3.1c3.6,1,8.1,1.9,12.4,2.8c3.2,0.7,6.5,1.4,9.6,2.1h2.2C229.2,725.4,225.2,724.5,221.1,723.6z"/>
			<path class="st10" d="M268.1,722.4c-13.9-1.9-28.4-3.7-42.8-5.5c-13.5-1.7-27.8-3-41-4.8c-6.3-0.9-11.7-2-17-3.1v0.3
				c4.3,1,8.7,1.9,13.7,2.7c6,1,12.6,1.7,19.2,2.4c7.2,0.8,14.2,1.6,21.2,2.5c14.4,1.8,28.9,3.6,43.1,5.4c9.2,1.2,17.9,2.6,26.7,4
				h1.7C284.7,724.9,276.6,723.6,268.1,722.4z"/>
			<path class="st10" d="M203.2,717.9c3.9,0.8,7.2,1.7,10.9,2.6c6.9,1.5,14.8,2.8,21.7,4.4c2,0.4,3.9,0.9,5.8,1.4h1.1
				c-1-0.2-2-0.5-3.1-0.7c-6-1.5-12.7-2.7-19.3-4c-6.7-1.3-12.1-2.9-18.4-4.3c-1.4-0.3-2.7-0.6-4-1c-1.8-0.5-1.1-0.6,1.2-0.3
				c3.5,0.4,7.1,0.7,10.7,1.1c8,0.8,16.3,1.5,24.1,2.4c7.8,0.9,15.3,2,22.7,3c7.3,1.1,15,1.9,22.5,2.9c2.3,0.3,4.6,0.6,6.9,1h1.7
				c-3.2-0.5-6.6-1.1-10.1-1.5c-8.7-1.1-17-2.2-25.4-3.5c-8.2-1.2-16.7-2.2-25.7-3.1c-8.4-0.8-16.7-1.7-25.2-2.5
				c-2.3-0.2-7.6-0.6-5.4,0.5C197.1,716.8,200.9,717.5,203.2,717.9z"/>
			<path class="st10" d="M235.8,722.9c4.6,0.9,9,2,13.4,3c0.5,0.1,1,0.2,1.6,0.4h1.7c-3.6-0.9-7.2-1.7-10.9-2.5
				c-3.7-0.8-7.4-1.6-11.3-2.4c-1-0.2-6.3-1.2-2.7-1.2c2.6,0,6.3,0.4,8.6,0.6c9.3,1,17.1,2.6,25.6,3.8c3.8,0.6,7.5,1.1,11.2,1.7h2
				c-5.6-0.9-11.6-1.7-17.2-2.6c-9.1-1.4-18.1-3.4-29.5-3.9c-1.1,0-4,0.2-3.7,0.5C225.5,721.4,232.7,722.2,235.8,722.9z"/>
			<path class="st10" d="M249.8,724.6c2.9,0.6,6.3,1.1,9.4,1.7h1.6c-1.4-0.3-2.9-0.6-4.3-0.9c-2.2-0.4-4.5-0.8-6.6-1.2
				c-0.3,0-2.9-0.7-1.5-0.5c1.1,0.1,2.1,0.4,2.9,0.5c3.7,0.8,8.2,1.4,12.5,2h2.6c-0.5-0.1-1.1-0.2-1.6-0.3
				c-3.9-0.6-7.7-1.2-11.6-1.9c-1.4-0.2-3.4-0.9-5.3-0.8C244.6,723.5,249,724.4,249.8,724.6z"/>
			<path class="st10" d="M350.3,725.5c-22-2.8-44.7-5-68.8-6.6c-12.1-0.8-23.8-1.7-35.3-3c-10.8-1.2-21.3-2.5-32.1-3.7
				c-10.9-1.2-22.2-2.1-32.5-3.6c-5.3-0.8-9.9-1.7-14.3-2.7v0.3c3.8,0.9,7.8,1.8,12.2,2.5c9.9,1.7,21.4,2.4,32,3.7
				c5.1,0.6,10.5,1.1,15.6,1.8c5.4,0.7,10.9,1.4,16.5,2c10.9,1.2,22.2,2.2,33.8,2.9c24.7,1.6,47.8,3.8,70.3,6.6
				c1.7,0.2,3.3,0.4,5,0.6h3.2C354.1,726,352.2,725.8,350.3,725.5z"/>
			<path class="st10" d="M321.3,724.9c-7.9-1-16.1-1.9-23.5-3c-3.4-0.5-7.1-0.9-10.9-1.1c-4.6-0.4-9-0.8-13.6-1.2
				c-9.8-0.8-20.2-1.4-29.1-2.7c-3.3-0.5-7.3-0.7-10.9-1c-4.3-0.4-8.6-0.8-12.7-1.2c-8.3-0.9-16.3-1.8-24.4-2.8
				c-8.3-1-16.1-2.3-23.9-3.5c-1.7-0.3-3.4-0.5-5.1-0.8v0.3c1,0.2,2,0.4,3.1,0.5c8.1,1.3,16.4,2.6,25.1,3.7c7.5,1,15.3,1.9,23.2,2.7
				c3.2,0.3,6.4,0.7,9.7,1c4.9,0.4,10.5,0.8,15,1.4c7.8,1,16.1,1.6,24.5,2.4c9.7,0.8,20.2,1.4,29.1,2.6c8.2,1.1,16.6,2.1,25,3.1
				c2.7,0.3,5.4,0.7,8.1,1h1.8C328.4,725.8,324.9,725.4,321.3,724.9z"/>
			<path class="st10" d="M381.5,725.6c-10.3-1.7-20.9-3.3-31.9-4.7c-22.1-2.9-46.5-4.8-69.6-7.2c-10.8-1.1-21.9-2-32.9-3
				c-12.4-1.1-24.2-2.5-35.6-4.1c-10-1.4-21-2.5-30.6-4.1c-4.8-0.8-9.2-1.7-13.6-2.6v0.3c3.8,0.8,7.6,1.6,11.6,2.4
				c9.5,1.7,21.1,2.9,31.5,4.3c10.5,1.5,21.4,2.7,32.7,3.9c11.8,1.2,24.1,2.1,35.8,3.3c23.2,2.4,47.4,4.4,69.8,7.1
				c10.7,1.3,20.9,2.8,30.8,4.4c1.4,0.2,2.9,0.5,4.3,0.7h2C384.4,726,383,725.8,381.5,725.6z"/>
			<path class="st10" d="M240.5,712.7c-1.5-0.5-4.7-0.6-7-0.8c-4.7-0.4-9-1-13.4-1.5c-4.2-0.5-8.2-1.1-12.4-1.6
				c-4.2-0.5-8.3-1-12.2-1.6c-7.6-1.2-14.6-2.6-21.8-3.8c-2.3-0.4-4.4-0.8-6.4-1.3v0.2c1.5,0.4,3,0.7,4.7,1
				c6.6,1.3,13.4,2.5,20.4,3.7c6.8,1.2,14.6,1.8,21.8,2.9c6.6,0.9,13.7,1.8,21.1,2.4c1.5,0.1,3,0.2,4.3,0.4c-1,0.1-2,0-3,0
				c-0.9,0-1.7-0.1-2.6-0.1c-4.2-0.2-8.3-0.5-12.4-0.8c-9-0.6-17.6-1.3-25.8-2.4c-3.6-0.5-7.1-1-10.5-1.6c-3.3-0.5-6.9-1-10-1.6
				c-2.7-0.5-5.3-1.1-7.9-1.6v0.3c8.5,1.7,17.9,3.2,27.9,4.6c6.7,0.9,14.1,1.6,21.5,2.1c4.1,0.3,8.2,0.6,12.3,0.8
				c3.5,0.2,7.5,0.5,11.2,0.5C240.4,712.8,240.6,712.7,240.5,712.7z"/>
			<path class="st10" d="M367.8,720c-11.2-1.5-22.4-3.2-34.4-4.3c-12.3-1.2-24.3-2.5-36.5-3.7c-12.2-1.2-24.5-2.3-36.9-3.5
				c-12.5-1.1-25.3-2-37.7-3.2c-12.2-1.1-23.7-2.5-33.8-4.4c-7.1-1.3-14.2-2.7-21-4.2v0.2c3.7,0.8,7.5,1.6,11.2,2.3
				c9.3,2,18.8,3.7,30.3,5c11.4,1.3,23.3,2.2,35.2,3.2c13.4,1.1,26.5,2.3,39.5,3.6c12.4,1.2,24.6,2.5,36.9,3.7
				c5.8,0.6,11.8,1.1,17.5,1.7c6.2,0.7,12,1.5,17.9,2.3c11.1,1.5,22.1,3.1,33.3,4.6c6.5,0.9,12.7,1.8,18.9,2.8h1.8
				C396,724.1,382.2,721.9,367.8,720z"/>
			<path class="st10" d="M425.6,719.7c-8.3-2-16.3-4.1-24.4-6.2c-8.8-2.2-18.1-4.3-27.4-6.4c-9-2.1-18.6-3.9-29.2-5.6
				c-11.1-1.7-22.8-3.2-33.6-4.9c-21.8-3.6-45.1-6.8-68.2-9.9c-9.6-1.3-19.1-2.7-28.1-4.1c-8.8-1.4-16.8-3.2-24.5-4.9
				c-7.7-1.7-15.1-3.6-22.2-5.4c-0.2-0.1-0.4-0.1-0.6-0.2v0.4c8.6,2.2,17,4.4,26.3,6.5c9.4,2.1,19.4,4,30.4,5.6
				c11.1,1.7,22.7,3.2,34.1,4.8c11.5,1.6,22.9,3.2,34.2,4.9c11.4,1.7,22.1,3.6,33.6,5.2c11,1.6,22,3.1,32.1,5
				c10.2,1.9,19.3,4.1,28.5,6.2c22.7,5.1,42.5,11,66.9,15.7h2.5C445.2,724.2,435.2,722,425.6,719.7z"/>
			<path class="st10" d="M274.2,699.1c-1.9-1.1-6.3-2-9.9-2.8c-4.8-1.1-9.5-2.2-14.3-3.3c-9.3-2.1-18.4-4.3-28.4-6.2
				c-10-1.9-19.1-4.1-29.8-5.8c-8.2-1.3-16.7-2.6-24.4-4.1v0.2c2.1,0.4,4.1,0.8,6.4,1.2c9.7,1.7,19.8,3.2,29.1,5.1
				c19.5,3.8,37.6,8,55.8,12.1c4.4,1,9,2,12.7,3.1c6.5,2.1-10.1,1.4-13.5,1.2c-12.2-0.5-23.6-1.8-34-3.3c-5.3-0.8-10.4-1.7-15.7-2.5
				c-5.2-0.8-11.1-1.4-16.6-2.1c-5.6-0.7-11.3-1.3-16.7-2.1c-2.5-0.3-5-0.7-7.5-1.1v0.2c2.4,0.3,4.8,0.7,7.1,1
				c5.8,0.9,12.1,1.5,18.1,2.2c5.5,0.7,11.2,1.4,16.4,2.2c5.7,0.9,11.1,1.8,16.8,2.7c10,1.5,21.3,2.6,33,3.1
				C261.3,700.2,277.2,700.8,274.2,699.1z"/>
			<path class="st10" d="M419,722.2c-20.2-3.8-45.2-6.3-68.3-9c-12.1-1.4-24.3-2.7-36.7-3.9c-12.6-1.3-24.7-2.7-37-4.1
				c-12-1.3-24.6-2.4-36.8-3.7c-11.3-1.2-23-2-33.8-3.4c-14.4-1.8-27.2-4.2-39-6.8v0.2c13.3,3,27.8,5.7,44.5,7.7
				c10.9,1.3,23,2.2,34.2,3.3c12.3,1.3,25,2.4,37.2,3.8c24.4,2.8,49.3,5.2,73.6,8c23.5,2.7,47,5.3,67.3,9.2
				c4.7,0.9,9.4,1.8,14.1,2.7h1.8C433.1,724.9,426.1,723.5,419,722.2z"/>
			<path class="st10" d="M431.5,711.1c-22.4-3.4-43-7.2-64.5-10.9c-10.7-1.8-21.7-3.5-32.8-5.2c-11.4-1.7-22.6-3.5-34.7-5
				c-11.7-1.5-23.4-2.9-34.7-4.6c-10.9-1.6-20.9-3.4-31.3-5.2c-17.5-3-33.4-6.3-49.6-9.6c-5.7-1.2-11.3-2.3-16.7-3.5v0.4
				c7.7,1.8,16,3.4,24.1,5.1c19.2,4.1,39.5,7.8,60.8,11.3c21.8,3.6,46.5,6.1,68.6,9.5c11.1,1.7,22.5,3.3,33.5,5.1
				c11,1.7,21.5,3.6,32,5.5c17.7,3.1,35.9,6.1,54.8,8.8c14.5,2.1,28.7,4.3,41.6,6.9v-0.4C467.1,716.2,449,713.7,431.5,711.1z"/>
			<path class="st10" d="M440.3,719.8c6.3,1.4,13.2,2.7,19.9,4c4.2,0.8,8.2,1.7,12.2,2.5h0.5c-8.7-1.9-17.6-3.7-26.3-5.5
				c-5.5-1.2-10.8-2.5-15.5-3.8c-2.4-0.7-4.9-1.4-7.1-2.1c-1.3-0.4-2-0.9,1.3-0.7c2,0.1,3.9,0.3,5.8,0.5c6.3,0.8,10.9,2,16.6,2.9
				c5.9,1,11.6,2,17.3,3c5.5,1,11.5,1.9,17.2,2.8c0.2,0,0.4,0.1,0.7,0.1v-0.4c-0.3-0.1-0.7-0.1-1-0.2c-6.7-1.2-13.4-2.3-19.9-3.6
				c-6.5-1.2-13.5-2.3-20-3.6c-3-0.6-6.2-1-9.5-1.5c-2-0.3-6.2-0.7-8.5-0.6c-4.3,0.1-3.3,1-1.3,1.6
				C427.9,716.8,434,718.4,440.3,719.8z"/>
			<path class="st10" d="M468.9,712.9c-14.8-2.5-29.1-5.3-42.7-8.2c-14.2-3-29.5-5.9-45.6-8.4c-16.9-2.6-34.9-4.7-52.2-7.1
				c-33.2-4.7-64.3-9.9-95.9-15.1c-16.2-2.7-30.4-6-43.9-9.3c-7.7-1.9-14.9-3.8-21.3-5.8v1.1c15.6,5.2,37.2,9.7,58.1,13.7
				c15.5,2.9,32.5,5.6,49.1,8.1c16.4,2.5,32.8,5,49.5,7.4c17.1,2.5,34.9,4.7,52,7.2c16.6,2.4,30.8,5.5,46,8.3
				c14.4,2.7,28.3,5.5,43.3,8.1c5.7,1,11.6,1.9,17.6,2.8v-0.5C478.1,714.5,473.5,713.7,468.9,712.9z"/>
			<path class="st10" d="M214,689.2c-7.9-2-16.4-3.9-24.9-5.7c-6.6-1.4-14-2.7-21.7-3.8v0.9c0.4,0.1,0.7,0.1,0.9,0.1
				c6.6,1,12.9,2.1,18.9,3.3c12.7,2.5,24.7,5.2,36.7,7.8c3,0.7,5.9,1.6,0.2,0.7c-2.8-0.5-6.5-0.9-9.6-1.3c-7.2-0.9-14.2-2-21-3.1
				c-8.7-1.4-17.4-2.9-26.2-4.3v0.5c7.4,1.2,14.8,2.5,22.4,3.7c6.9,1.1,14,2.1,21.1,3.1c5.3,0.7,11.6,1.9,17.7,2.3
				c0.3,0,0.7-0.1,0.6-0.2C227.2,691.7,218.6,690.4,214,689.2z"/>
			<path class="st10" d="M239.9,693.9c-4-1-8-2-11.9-3.1c-7.2-2-15.3-3.8-23.7-5.5c-11.8-2.4-24.2-4.5-36.9-6.6v0.9
				c8.7,1.4,17.7,2.8,25.8,4.4c14.9,3,28.3,5.9,41.4,9.3c2.6,0.7,5.4,1.3,8,1.9c1,0.9-0.5,1-4.3,0.3c-2.3-0.3-4.5-0.7-6.7-1
				c-7.7-1-16-1.8-23.9-2.8c-13.3-1.6-27.4-3.2-40.3-5.1v0.4c12.4,1.9,26.1,3.5,39,5.1c8.7,1.1,17.8,1.9,26.4,3.1
				c3.5,0.5,8.4,1.7,12.7,1c0.4-0.1,0.8-0.2,0.7-0.3C245.1,695.1,242.3,694.5,239.9,693.9z"/>
			<path class="st10" d="M411.2,688.8c-31-3-63.8-4.7-95.5-7.2c-33-2.6-62.9-7.3-90.2-12.2c-13.4-2.4-26.4-5.1-38.8-7.9
				c-7.4-1.6-13.7-3.4-19.4-5.2v0.8c3.5,1.2,7.2,2.3,11.6,3.3c11.9,2.9,25.4,5.3,38.1,8c12.9,2.7,28.2,4.9,42.6,7.2
				c13.4,2.1,27.6,4.1,42.9,5.5c33,3,68,4.6,101.1,7.6c27.3,2.5,53.6,5.5,79.2,8.8V697C459.7,693.9,435.8,691.2,411.2,688.8z"/>
			<path class="st10" d="M482.8,711.6c-10.7-2.2-20.2-4.8-30.2-7.2c-18.8-4.5-45.5-6.5-67.2-10.1c-5.4-0.9-10.7-1.9-14.8-3.1
				c-3.2-0.9-4.8-1.8,1.8-1.7c3.2,0,6.3,0.2,9.3,0.4c12.3,0.9,24.5,1.9,36.9,2.8c13.9,1,26.9,2.2,39,4.1c8.6,1.3,16.7,2.9,25.1,4.3
				v-0.6c-8.7-1.5-17-3.1-26-4.5c-13-2-28-3.2-43-4.2c-13-0.9-26.5-2.5-40-2.8c-3.5-0.1-13.6,0.4-8.2,1.8c10.5,2.7,22,4.7,35.5,6.6
				c13.7,1.9,28.2,3.3,41.2,5.5c6.5,1.1,11.9,2.7,17.3,4c5.7,1.4,11.7,2.8,17.5,4.2c1.8,0.4,3.7,0.9,5.7,1.3V711.6z"/>
			<path class="st10" d="M482.8,708.6c-7.3-1.7-14.6-3.4-23.2-4.8c-7.3-1.2-13.9-2.6-20.9-3.9c-5.9-1.1-13.5-2.2-16.8-3.9
				c-1.5-0.7,12.9,0.5,12.9,0.5c4.2,0.5,8,1.2,11.8,1.8c7.4,1.2,15.4,2.3,22.9,3.5c4.6,0.7,9,1.5,13.3,2.3v-0.7
				c-5.3-1-11-2-16.9-2.9c-9-1.4-18-2.8-27.1-4.2c-4.4-0.7-12.6-1.8-17.7-1c-7.8,1.3,20,5.6,23.1,6.2c8.3,1.6,17.3,2.9,25.2,4.6
				c4.5,1,8.9,1.9,13.4,2.9V708.6z"/>
			<path class="st10" d="M482.8,707.4c-6-1.3-12.8-2.6-17.6-4.1c3.8,0.3,7.5,1.3,10.2,1.8c2.5,0.4,4.9,0.9,7.4,1.3V706
				c-2.7-0.5-5.5-1.1-8.2-1.6c-3.2-0.6-6.4-1.7-11.1-1.6c-0.5,0-1.5,0.3-1.2,0.4c4.6,1.7,12.1,3.1,18.4,4.5c0.7,0.2,1.4,0.3,2.1,0.5
				V707.4z"/>
			<path class="st10" d="M412.2,680.6c-32.7-2.2-66.1-3.7-98.7-6c-16.3-1.1-32.2-2.5-47.2-4.4c-13.7-1.8-26.5-3.9-39.2-6
				c-17.9-3-36.5-6.2-52.4-9.9h-2.6c14.5,3.6,31.7,6.7,48.5,9.6c12.7,2.1,25.2,4.3,38.6,6.2c13.8,2,28.3,3.3,43.6,4.5
				c32.5,2.5,66.3,3.7,99.3,5.8c16,1,32.2,2,48.1,3.1c11.2,0.8,22.1,1.9,32.6,3.1v-0.4c-7.4-0.9-15-1.6-22.8-2.3
				C444.5,682.5,428.1,681.7,412.2,680.6z"/>
			<path class="st10" d="M482.8,694.5c-22.7-3-46.2-5.8-69.9-8.3c-29.3-3.1-64.1-2.4-92.4-6.3c-3.4-0.5,5.2-0.5,5.5-0.5
				c1.8,0,3.6,0,5.5,0c8.6,0.1,16.8,1.2,25.2,1.5c16.8,0.7,34,0.5,50.7,1.2c7.7,0.3,15.4,1.2,22.8,1.8c9.6,0.8,18.9,1.7,27.9,2.8
				c7.9,1,15.6,2,23.7,2.9c0.4,0,0.8,0.1,1.2,0.1v-0.6c-2.4-0.3-4.8-0.6-7.2-0.9c-9-1.1-17.5-2.3-26.6-3.3
				c-7.5-0.8-15.5-1.5-23.4-2.1c-9.5-0.7-17.7-1.5-27.9-1.5c-19.6-0.1-38.5-0.6-57.1-2c-4.2-0.3-19.2-1.1-23.1,0.1
				c-3.7,1.1,21.4,2.7,23.8,2.9c17.8,1.4,35.9,1.7,53.9,2.8c19,1.1,37.8,3.8,55,5.9c10.9,1.3,21.7,2.7,32.5,4.1V694.5z"/>
			<path class="st10" d="M459.9,680.6c-12.2-1.8-24.4-3.5-37.4-5c-26.2-3-53.4-5.6-79.8-8.5c-25.3-2.8-52.9-4.5-79-6.8
				c-14.5-1.3-29.2-2.3-43-4c-4.7-0.6-9.2-1.3-13.5-2h-2.1c14.3,2.5,30.3,4.3,48.3,5.8c13.7,1.1,26.8,2.6,40.6,3.7
				c14.6,1.1,29.5,2.3,43.5,3.8c26.6,2.8,53.3,5.6,79.9,8.5c13.1,1.4,25.5,3.1,37.7,4.8c9,1.3,18.3,2.4,27.6,3.4v-0.7
				c-1.5-0.2-3-0.3-4.5-0.5C471.9,682.4,465.9,681.5,459.9,680.6z"/>
			<path class="st10" d="M373.8,675.3c-3.3-1.3-14.4-2-20-2.7c-10.2-1.3-20-2.8-30.4-4c-9.9-1.1-20.2-2-30.1-3.2
				c-8.7-1-18.2-1.7-27.7-2.2c-4.2-0.2-7.4-0.7-10,0.3c-2.5,0.9,5.8,2.1,8,2.4c16.1,2.7,37.4,4.6,56.8,5.6c0.7,0,1.5-0.3,1.4-0.4
				c-0.7-0.8-10.5-1.7-13.3-2.2c-4.4-0.7-9.2-1.2-13.9-1.7c-3.5-0.4-8.1-0.4-11.3-0.9c-0.5-0.1-1.8,0.3-1.2,0.4
				c2.1,0.3,4.6,0.4,7,0.5c4.4,0.2,9.4,1,13.4,1.5c3.6,0.4,6.7,1,10.2,1.5c1.3,0.2,3.8,0.4,5.6,0.7c-14.4-0.9-28.8-2.2-41.7-3.8
				c-5.3-0.7-10.6-1.4-15.4-2.2c-2.5-0.3-2.9-0.8-1.1-1.4c1.4,0.1,2.8,0.2,4.2,0.4c3.5,0.3,7,0.7,10.7,0.9
				c7.6,0.4,14.6,1.3,21.5,2.1c7.2,0.8,14.8,1.4,22.2,2.2c14.5,1.5,27.7,3.6,42.2,5.1c3.3,0.3,15.4,1.6,5.5,1.5
				c-7.8,0-14.9-0.4-22.4-0.9c-16.3-1-31.7-2.9-47.2-4.4c-29.2-2.9-56.7-6.3-80.6-11.1c-0.3-0.1-0.9,0.1-0.7,0.2
				c23.6,5,50.4,8.5,79.7,11.3c14.7,1.4,29.2,3.1,44.5,4.2c8.5,0.6,25.2,2,33.6,0.7C373.4,675.5,374.1,675.3,373.8,675.3z"/>
			<path class="st10" d="M437.7,674.6c-22.5-2.9-45.4-5.8-68.9-8.3c-10.8-1.2-21.8-2.2-33-3.1c-12.4-1-25.1-1.7-37.1-3
				c-11.2-1.2-22.6-2.3-33.7-3.5c-6.3-0.7-12.2-1.5-18.1-2.4h-3.5c5.6,0.9,11.1,1.8,17.1,2.6c11.6,1.5,24,2.7,36,4
				c10,1.1,20.7,1.8,31.3,2.6c14.4,1,28.5,2.2,42.1,3.7c24.4,2.6,48.3,5.6,71.7,8.6c12.4,1.6,24.6,3.4,36.8,5.1
				c1.4,0.2,2.9,0.4,4.4,0.6v-0.5c-3.9-0.5-7.6-1.1-11.4-1.7C460.3,677.6,449.1,676.1,437.7,674.6z"/>
			<path class="st10" d="M462.8,670.8c-11.3-2.9-21.8-5.9-32.8-8.8c-10.5-2.8-22.7-5.1-34-7.7h-6.2c1.6,0.3,3.1,0.7,4.7,1
				c11.6,2.6,24.1,5.1,35,7.9c11.2,2.9,21.9,5.9,33.4,8.7c5.9,1.4,12.5,3.1,19.9,4.4v-0.7C475.4,674.1,468.7,672.3,462.8,670.8z"/>
			<path class="st10" d="M438.7,666.5c-18-4.6-41.2-7.9-60.6-12.2h-2.6c15.8,3.7,34.3,6.8,51.3,10.3c9,1.9,16.6,4,24.2,6.2
				c6.7,1.9-8.9,0.4-11.7,0.2c-7.8-0.8-15.1-1.7-22.2-2.8c-11.5-1.7-22-3.6-32.7-5.5c-11.7-2.1-24.3-3.6-37.9-4.9
				c-12.3-1.2-25.9-1.8-38.6-2.8c-2.7-0.2-5.3-0.4-7.9-0.6h-6.9c3.5,0.3,7.1,0.6,10.6,0.9c16.3,1.3,33.2,2.2,48.9,3.9
				c30.9,3.2,53.5,9.3,84.9,12.4c2.9,0.3,16.2,1.8,17.7,0.4c0.7-0.6-1-1.1-2.5-1.6C448.5,669,443.4,667.8,438.7,666.5z"/>
			<path class="st10" d="M392.1,659.7c-7-1.4-13.5-3-20.4-4.4c-1.5-0.3-3-0.6-4.6-1h-4c2.4,0.5,4.7,0.9,7,1.4
				c6.2,1.3,12.4,2.5,18.4,3.8c2.5,0.5,5.1,1.1,7.5,1.7c0.7,0.2,5.6,1,1.2,0.5c-6.4-0.7-11.9-1.6-17.9-2.5c-6.7-1-14.1-1.6-21.4-2.3
				c-8.3-0.8-16.9-1.7-25.3-2.5h-4.4c10.2,1.2,20.8,2.2,31,3.3c8.2,0.8,16,1.6,23.4,2.8c5.3,0.8,11.6,1.8,18,2.2
				c0.5,0,1.3-0.2,1.3-0.3C401.3,661.3,395.2,660.3,392.1,659.7z"/>
			<path class="st10" d="M443.7,660c-9-1.7-17.9-3.5-26.9-5.2c-0.8-0.1-1.6-0.3-2.4-0.4h-4.1c0.1,0,0.2,0,0.3,0.1
				c8.6,1.8,17.2,3.7,26,5.5c8.6,1.8,17.7,3.4,26.7,5.1c6.2,1.2,12.8,2.1,19.4,3.1v-1.2c-3.9-0.7-8-1.3-11.9-2
				C461.7,663.3,452.5,661.7,443.7,660z"/>
			<path class="st10" d="M463.2,658.5c-5.9-1.2-11.5-2.5-17-3.8c-0.5-0.1-1.1-0.3-1.8-0.4h-2.4c5.7,1.4,11.4,2.8,17.5,4.1
				c7.4,1.6,15.4,3.1,23.3,4.6v-0.8c-0.6-0.1-1.1-0.2-1.7-0.3C475.3,660.7,469.1,659.6,463.2,658.5z"/>
			<path class="st10" d="M442.7,655.8c-2.1-0.5-4.1-1-6.1-1.5H435c1.5,0.4,3,0.8,4.6,1.2c6.3,1.6,13,3.1,19.9,4.5
				c7.1,1.5,14.8,3.2,23.2,4.6v-0.6c-7.8-1.3-15-2.9-22-4.3C454.5,658.5,448.5,657.2,442.7,655.8z"/>
			<path class="st10" d="M471.3,654.3c3.7,0.7,7.5,1.4,11.5,2v-0.8c-2.5-0.4-5-0.8-7.4-1.2H471.3z"/>
		</g>
	</g>
	<polygon class="st12" points="173.7,716.6 173.7,655.9 472.5,655.9 177.9,656.9 	"/>
</g>
<g>
	<path d="M362.2,823.3c0,0.4-0.3,0.6-1,0.8c-0.6,0.2-1.8,0.2-3.3,0.2c-1.6,0-2.7-0.1-3.4-0.2c-0.7-0.2-1-0.4-1-0.8v-20.2
		c0-2.6-0.2-4.5-0.5-5.6c-0.3-1.1-0.9-2-1.8-2.6c-0.9-0.6-2.1-1-3.7-1.3c-1.6-0.3-4-0.4-7.1-0.4c-4,0-8.9,0.1-14.7,0.4
		c-0.5,0-0.9-0.1-1.2-0.5c-0.2-0.3-0.4-0.9-0.4-1.7c0-0.9,0.1-1.5,0.3-1.9c0.2-0.3,0.7-0.5,1.3-0.6c4.7-0.3,9.6-0.5,14.8-0.5
		c4.3,0,7.9,0.2,10.6,0.7c2.7,0.5,4.9,1.2,6.5,2.2c1.6,1,2.7,2.4,3.4,4.1c0.7,1.7,1,4.1,1,7.2V823.3z"/>
	<path d="M385.9,823.3c0,0.4-0.3,0.6-1,0.8c-0.7,0.2-1.8,0.2-3.4,0.2c-1.6,0-2.7-0.1-3.3-0.2c-0.7-0.2-1-0.4-1-0.8v-33.6
		c0-0.4,0.3-0.6,1-0.8c0.6-0.2,1.8-0.2,3.3-0.2c1.6,0,2.7,0.1,3.4,0.2c0.7,0.2,1,0.4,1,0.8V823.3z"/>
	<path d="M412.5,819.4c3.8,0.4,7.5,0.6,11.2,0.6c6.5,0,11.9-0.9,16.1-2.8c4.2-1.9,7.3-4.7,9.4-8.5c2.1-3.8,3.1-8.7,3.1-14.6v-4.5
		c0-0.4,0.3-0.6,1-0.8c0.6-0.2,1.8-0.2,3.4-0.2c1.6,0,2.7,0.1,3.3,0.2c0.6,0.2,1,0.4,1,0.8v4.3c0,6.8-1.4,12.5-4.2,17
		c-2.8,4.5-7,8-12.6,10.3s-12.5,3.4-20.8,3.4c-2.4,0-5.2-0.1-8.2-0.3c-3-0.2-5.2-0.4-6.6-0.6c-1.4-0.2-2.4-0.5-3-0.8
		c-0.6-0.3-1-0.8-1.1-1.4l-7.2-31.5c-0.1-0.4-0.1-0.7,0.2-0.9c0.2-0.2,0.6-0.3,1.2-0.4c0.6-0.1,1.5-0.1,2.7-0.1
		c1.6,0,2.8,0.1,3.5,0.2c0.7,0.1,1.1,0.4,1.2,0.8l3.4,15.1c4.7,0.1,8.1-0.1,10.4-0.7s3.8-1.7,4.8-3.4c0.9-1.6,1.4-4.2,1.4-7.8v-3.2
		c0-0.4,0.3-0.6,0.9-0.8c0.6-0.2,1.7-0.2,3.3-0.2c1.5,0,2.6,0.1,3.2,0.2c0.6,0.2,0.9,0.4,0.9,0.8v3.2c0,4.3-0.8,7.7-2.3,10
		c-1.6,2.4-4,4.1-7.5,5.1c-3.4,1-8.1,1.4-14,1.2L412.5,819.4z"/>
	<path d="M482,808.7c0,0.4-0.3,0.6-1,0.8s-1.8,0.2-3.4,0.2c-1.6,0-2.7-0.1-3.3-0.2s-1-0.4-1-0.8v-19.1c0-0.4,0.3-0.6,1-0.8
		c0.6-0.2,1.8-0.2,3.3-0.2c1.6,0,2.7,0.1,3.4,0.2c0.7,0.2,1,0.4,1,0.8V808.7z"/>
	<path d="M539.6,795.4c0,1.7-0.2,3.2-0.5,4.3c-0.3,1.1-0.9,2.2-1.7,3.2s-1.9,2.1-3.3,3.2s-3.6,2.7-6.5,4.6L540,822
		c0.4,0.4,0.7,0.6,0.8,0.9c0.2,0.2,0.2,0.4,0.2,0.6c0,0.3-0.3,0.5-1,0.7s-1.8,0.2-3.3,0.2c-1.2,0-2.2,0-3-0.1
		c-0.8-0.1-1.4-0.2-1.8-0.3s-0.8-0.4-1.2-0.7l-21.5-19.9c-1.6,1.5-2.8,2.6-3.4,3.6c-0.6,0.9-1,2-1.3,3.2c-0.2,1.2-0.4,3.2-0.4,6v7.2
		c0,0.4-0.3,0.6-1,0.8c-0.7,0.2-1.8,0.2-3.3,0.2c-1.6,0-2.7-0.1-3.4-0.2c-0.7-0.2-1-0.4-1-0.8v-7c0-3.2,0.2-5.6,0.7-7.2
		c0.5-1.6,1.3-3.2,2.5-4.6c1.2-1.5,3.1-3.3,5.7-5.5l-8.8-8.1c-0.4-0.3-0.6-0.6-0.8-0.8s-0.2-0.4-0.2-0.6c0-0.3,0.3-0.5,1-0.7
		c0.7-0.1,1.8-0.2,3.4-0.2c1.7,0,2.9,0.1,3.7,0.2c0.8,0.1,1.4,0.4,1.8,0.8l18.4,16.9c2.6-1.7,4.3-3.1,5.3-4s1.6-1.9,2-3
		c0.4-1,0.6-2.3,0.6-3.9v-6c0-0.4,0.3-0.6,1-0.8c0.7-0.2,1.8-0.2,3.4-0.2c1.5,0,2.6,0.1,3.3,0.2c0.7,0.2,1,0.4,1,0.8V795.4z"/>
</g>
<g>
	<path class="st13" d="M531.6,574.9c0-2.3,1.2-3.9,3-3.9s2.9,1.6,2.9,3.9c0,2.1-1.2,3.8-3,3.8C532.8,578.7,531.6,577,531.6,574.9z
		 M531.6,596.5c0-2.3,1.2-3.9,3-3.9s2.9,1.5,2.9,3.9c0,2.1-1.2,3.8-3,3.8C532.8,600.3,531.6,598.7,531.6,596.5z"/>
	<path class="st13" d="M568.9,579.4v14.7c0,0.4-0.5,3.8-0.8,5.5h-22.3v-21.9c0-2.8,0.1-4.7,0.3-5.9c-1.3,0-3-0.1-3.6-0.4l0.8-5.4
		c1.3,0.3,4.1,0.3,6.8,0.3h10C567.5,566.4,568.9,568.9,568.9,579.4z M560,571.9h-10.6v22.1h15.7v-13.2
		C565.1,574.8,564.5,571.9,560,571.9z"/>
	<path class="st13" d="M573.8,566.6l4.7-0.6c0.3,1.5,1,6.1,2.5,17.4c5-1.4,5.8-3.9,5.8-8.3c0-2.4-0.6-5.9-1.3-8.6l4.7-0.6
		c0.5,2,1,5.4,1,8.4c0,5.8-1.4,11-9.8,13c0.1,0.6,0.6,5,0.9,7c1.1-0.1,3-0.3,5.4-1c6.1-1.7,9.9-4.9,9.9-15.3c0-4-0.8-8.6-1.7-11.5
		l4.8-0.5c0.5,2.2,1.2,6.2,1.2,10.8c0,15-7.1,20.1-14.8,21.8c-3.1,0.7-6.2,1.2-7.9,1.3C578.1,592,575.2,571.6,573.8,566.6z"/>
	<path class="st13" d="M618,571.9c-1.1-0.1-1.9-0.2-2.5-0.4l0.9-5.4c0.8,0.2,4,0.3,7,0.3h11.3c6,0,7.1,3.9,7.1,10.2
		c0,14.4-6.8,21-13.4,22.5c-2.6,0.6-5,0.9-6.4,1C620.8,591.8,618.7,576.5,618,571.9z M629.1,593.6c6.1-1.5,8.8-7.8,8.8-15.7
		c0-4-0.9-6-4.4-6H622c0.6,4.5,2.3,16.6,3.1,22.4C626,594.2,627.5,594,629.1,593.6z"/>
	<path class="st13" d="M646,594.3c1.2-0.2,2.8-0.2,6.1-0.2h3.5v-13.6c0-5.3-0.5-6.8-4.9-8.1c-1.8-0.5-3.5-1-4.3-1.3l0.8-5.4
		c0.6,0.3,2.1,0.7,4.3,1.2c5.7,1.5,8,3.5,8,12.5v14.9l-0.8,5.4h-6.9c-2.1,0-5.6,0.1-6.5,0.2L646,594.3z"/>
	<path class="st13" d="M664.7,594.3c1-0.2,3.8-0.2,6.7-0.2h9.5c0.5-3.1,0.9-7.8,0.9-11.4c0-8.2-1.5-10.8-6.9-10.8h-4.6
		c-2.9,0-5-0.1-5.7-0.4l0.9-5.4c1,0.2,3.4,0.2,6.2,0.2h4.1c8.2,0,9.8,4.5,9.8,15.9c0,6.5-0.8,13-1.6,17.4h-13.6
		c-2.1,0-5.4-0.1-6.5,0.2L664.7,594.3z"/>
	<path class="st13" d="M710.6,581.4c0-6.8-0.5-9.5-5.2-9.5H697c-2.9,0-5-0.1-5.7-0.4l0.8-5.4c1,0.2,3.5,0.2,6.8,0.2h6.8
		c7,0,8.6,2.5,8.6,12.5v20.7h-3.8V581.4z M692.3,582.2h3.9v17.5h-3.9V582.2z"/>
</g>
<g>
	<path d="M525.7,681.3c0-2.3,1-3.9,2.3-3.9s2.3,1.6,2.3,3.9c0,2.1-0.9,3.9-2.3,3.9C526.6,685.2,525.7,683.4,525.7,681.3z
		 M525.7,703.3c0-2.3,1-3.9,2.3-3.9s2.3,1.6,2.3,3.9c0,2.2-0.9,3.9-2.3,3.9C526.6,707.2,525.7,705.5,525.7,703.3z"/>
	<path d="M535.7,698.2c0-6.1,0.9-11.8,3.7-16.5c-1.7-3.2-3.7-6.4-5.3-8.7l0.1-0.3l4.2-0.5c2,3.2,4.9,8.5,9,16.6
		c1.6-1.7,2.5-4.2,2.5-8.2c0-2.4-0.4-5.2-1.2-7.9l3.8-0.6c0.5,2.4,0.7,4.6,0.7,7.4c0,5.1-1.6,9.7-4.5,12.3
		c2.1,4.1,5.4,11.6,6.6,14.6h-4.1c-1.3-3.4-4.7-11.1-10.3-21.4c-1.7,3.4-2.1,7.8-2,11.8c0,3.6,0.6,7,1.1,9.7h-3.8
		C536,704.1,535.7,701,535.7,698.2z"/>
	<path d="M559.8,687.4c0.5-6.2-1-8.7-3.5-9.6l0.7-5.8c3.1,0.8,5,4,5.4,8.8c0.9-3.8,3.2-8.7,7.6-8.7c6.1,0,7.6,8.9,7.6,20.9v8
		c0,0.6-0.4,4.7-0.5,5.5h-7.7c-1.6,0-3.6,0.1-4.4,0.2l0.7-5.5c0.8-0.2,2.7-0.2,4.8-0.2h4.1c0-2.6,0-5.2,0-7.7
		c0-7.9-0.6-15.5-5.2-15.5c-4.3,0-5.9,6.9-6.5,11.1c-0.6,4.2-1.4,11.7-2.2,17.7h-3.1C558.5,700.1,559.4,692,559.8,687.4z"/>
	<path d="M582.6,678.2c-0.9-0.1-1.5-0.2-2-0.4l0.7-5.5c0.6,0.2,3.1,0.3,5.6,0.3h8.9c4.8,0,5.6,4,5.6,10.4c0,14.7-5.4,21.4-10.6,22.9
		c-2,0.6-4,0.9-5,1C584.8,698.5,583.2,682.9,582.6,678.2z M591.4,700.3c4.9-1.6,6.9-8,6.9-16c0-4.1-0.7-6.1-3.4-6.1h-9.1
		c0.5,4.6,1.8,16.9,2.4,22.8C588.9,701,590.1,700.8,591.4,700.3z"/>
	<path d="M605.8,678.2c-0.9-0.1-1.5-0.2-2-0.4l0.7-5.5c0.6,0.2,3.1,0.3,5.6,0.3h8.9c4.8,0,5.6,4,5.6,10.4c0,14.7-5.4,21.4-10.6,22.9
		c-2,0.6-4,0.9-5,1C608,698.5,606.4,682.9,605.8,678.2z M614.6,700.3c4.9-1.6,6.9-8,6.9-16c0-4.1-0.7-6.1-3.4-6.1H609
		c0.5,4.6,1.8,16.9,2.4,22.8C612.1,701,613.3,700.8,614.6,700.3z"/>
	<path d="M637.2,678.2c-0.9-0.1-1.5-0.2-2-0.4l0.7-5.5c0.6,0.2,3.1,0.3,5.6,0.3h8.9c4.8,0,5.6,4,5.6,10.4c0,14.7-5.4,21.4-10.6,22.9
		c-2,0.6-4,0.9-5,1C639.4,698.5,637.8,682.9,637.2,678.2z M646,700.3c4.9-1.6,6.9-8,6.9-16c0-4.1-0.7-6.1-3.4-6.1h-9.1
		c0.5,4.6,1.8,16.9,2.4,22.8C643.5,701,644.7,700.8,646,700.3z"/>
	<path d="M659.3,701.1c1-0.2,2.2-0.3,4.8-0.3h2.7v-13.9c0-5.4-0.4-6.9-3.9-8.2c-1.4-0.5-2.8-1-3.4-1.4l0.7-5.5
		c0.5,0.3,1.7,0.7,3.4,1.2c4.5,1.5,6.3,3.6,6.3,12.8V701l-0.7,5.5h-5.4c-1.7,0-4.4,0.1-5.2,0.2L659.3,701.1z"/>
	<path d="M674.1,701.1c0.8-0.2,3-0.2,5.3-0.2h7.5c0.4-3.1,0.7-7.9,0.7-11.6c0-8.4-1.2-11-5.4-11h-3.6c-2.3,0-3.9-0.1-4.5-0.4
		l0.7-5.5c0.8,0.2,2.7,0.2,4.9,0.2h3.2c6.5,0,7.7,4.6,7.7,16.2c0,6.7-0.7,13.2-1.3,17.7h-10.8c-1.7,0-4.2-0.1-5.2,0.2L674.1,701.1z"
		/>
	<path d="M710.3,687.9c0-6.9-0.4-9.7-4.1-9.7h-6.7c-2.3,0-4-0.1-4.5-0.4l0.7-5.5c0.8,0.2,2.7,0.2,5.4,0.2h5.4
		c5.6,0,6.8,2.6,6.8,12.8v21.1h-3V687.9z M695.9,688.7h3.1v17.8h-3.1V688.7z"/>
</g>
</svg>
